<?xml version="1.0" standalone="no"?>
<!DOCTYPE svg PUBLIC "-//W3C//DTD SVG 20010904//EN"
 "http://www.w3.org/TR/2001/REC-SVG-20010904/DTD/svg10.dtd">
<svg version="1.0" xmlns="http://www.w3.org/2000/svg"
 width="700.000000pt" height="700.000000pt" viewBox="0 0 700.000000 700.000000"
 preserveAspectRatio="xMidYMid meet">
<metadata>
Created by potrace 1.11, written by Peter Selinger 2001-2013
</metadata>
<g transform="translate(0.000000,700.000000) scale(0.100000,-0.100000)"
fill="#000000" stroke="none">
<path d="M1100 6993 c-550 -80 -960 -467 -1076 -1016 -19 -88 -25 -302 -12
-415 9 -73 35 -189 48 -214 6 -10 10 -23 10 -30 0 -28 89 -208 145 -293 72
-111 233 -273 341 -344 115 -76 291 -156 385 -175 13 -3 49 -10 79 -15 30 -6
66 -13 80 -16 39 -8 208 -8 285 0 197 20 423 109 595 234 278 201 472 538 507
881 46 441 -122 852 -462 1135 -134 112 -370 223 -528 249 -18 3 -43 8 -57 12
-29 6 -302 12 -340 7z"/>
<path d="M3728 6905 c-3 -2 -173 -12 -368 -20 -99 -4 -280 -16 -425 -28 -20
-2 -20 -9 -20 -292 l0 -290 25 2 c33 3 154 13 210 18 262 23 888 24 1020 0 14
-2 47 -7 74 -10 201 -23 415 -97 521 -179 95 -73 157 -173 170 -274 4 -28 7
-709 7 -1512 0 -1349 1 -1460 17 -1461 97 -4 1743 0 1747 4 4 3 6 698 6 1544
0 1105 -4 1552 -12 1588 -37 165 -109 278 -250 393 -207 170 -464 285 -840
378 -48 11 -312 63 -350 68 -25 3 -58 8 -75 11 -16 3 -48 7 -70 9 -117 12
-172 18 -193 21 -12 2 -64 7 -115 10 -50 4 -110 9 -132 12 -44 5 -941 13 -947
8z"/>
<path d="M307 4238 c-16 -9 -15 -3057 1 -3134 49 -233 232 -421 565 -579 209
-100 519 -192 802 -239 97 -16 228 -35 280 -41 33 -4 74 -8 90 -10 273 -32
432 -39 925 -40 396 0 591 5 840 20 41 3 116 7 165 10 181 10 255 18 262 28 9
14 8 551 -1 566 -4 6 -11 9 -15 6 -5 -2 -44 -7 -87 -10 -44 -3 -99 -7 -124
-10 -159 -18 -757 -25 -950 -12 -525 36 -819 170 -906 413 -16 46 -17 143 -18
1543 l-1 1494 -908 1 c-500 0 -914 -2 -920 -6z"/>
<path d="M5660 2529 c-159 -18 -254 -40 -370 -86 -61 -25 -189 -90 -200 -102
-3 -3 -31 -23 -62 -45 -145 -97 -298 -277 -388 -456 -147 -292 -174 -641 -76
-961 109 -356 394 -659 744 -794 163 -62 250 -78 422 -79 166 -1 212 4 330 34
346 89 641 330 804 657 38 76 80 184 91 233 36 160 39 185 39 325 1 202 -20
322 -83 480 -70 174 -152 298 -290 435 -107 106 -225 190 -353 249 -82 38
-111 48 -213 75 -111 30 -295 46 -395 35z"/>
</g>
</svg>
