<?xml version="1.0" encoding="utf-8"?>
<svg viewBox="8.95 0.632 9.298 9.192" xmlns="http://www.w3.org/2000/svg">
  <g aria-label="i" transform="matrix(-1.864015, 0, 0, -0.671917, -100.299316, -134.334473)" style="font: 15.7509px/1.25 Gisha; letter-spacing: 0px; word-spacing: 0px; fill: rgb(0, 0, 0); fill-opacity: 1; stroke: none; stroke-width: 0.393774;" id="text8209-1-6-74-7">
    <path d="M -62.746 -210.965 C -62.972 -210.965 -63.164 -211.042 -63.323 -211.196 C -63.482 -211.349 -63.562 -211.544 -63.562 -211.78 C -63.562 -212.016 -63.482 -212.211 -63.323 -212.365 C -63.164 -212.524 -62.972 -212.603 -62.746 -212.603 C -62.516 -212.603 -62.321 -212.524 -62.162 -212.365 C -61.998 -212.211 -61.916 -212.016 -61.916 -211.78 C -61.916 -211.554 -61.998 -211.362 -62.162 -211.203 C -62.321 -211.044 -62.516 -210.965 -62.746 -210.965 Z M -62.131 -203.289 C -62.131 -202.566 -61.852 -202.205 -61.293 -202.205 C -61.067 -202.205 -60.865 -202.233 -60.685 -202.289 L -60.685 -201.151 C -60.783 -201.126 -60.913 -201.103 -61.078 -201.082 C -61.237 -201.056 -61.406 -201.044 -61.585 -201.044 C -61.836 -201.044 -62.072 -201.085 -62.293 -201.167 C -62.513 -201.249 -62.705 -201.374 -62.87 -201.543 C -63.028 -201.713 -63.157 -201.923 -63.254 -202.174 C -63.346 -202.43 -63.393 -202.728 -63.393 -203.066 L -63.393 -208.965 L -62.131 -208.965 Z" style="font-style:normal;font-variant:normal;font-weight:normal;font-stretch:normal;font-family:Gisha;-inkscape-font-specification:Gisha;fill:#000000;fill-opacity:1;stroke-width:0.39377373" id="path7576"/>
  </g>
  <g aria-label="i" transform="matrix(1.899674, 0, 0, 0.659304, -92.791245, -133.383743)" style="font: 16.0523px/1.25 Gisha; letter-spacing: 0px; word-spacing: 0px; fill: rgb(0, 0, 0); fill-opacity: 1; stroke: none; stroke-width: 0.401307;" id="text8345-1-8-8">
    <path d="m 54.422914,206.72421 q -0.344873,0 -0.587852,-0.23514 -0.242979,-0.23514 -0.242979,-0.59569 0,-0.36055 0.242979,-0.59569 0.242979,-0.24298 0.587852,-0.24298 0.352712,0 0.595691,0.24298 0.250817,0.23514 0.250817,0.59569 0,0.34487 -0.250817,0.58785 -0.242979,0.24298 -0.595691,0.24298 z m 0.627043,7.82235 q 0,1.10516 0.854345,1.10516 0.344873,0 0.619204,-0.0862 v 1.16002 q -0.148922,0.0392 -0.399739,0.0705 -0.242979,0.0392 -0.51731,0.0392 -0.384064,0 -0.721099,-0.12541 -0.337035,-0.12541 -0.587852,-0.38407 -0.242979,-0.25865 -0.391902,-0.64271 -0.141084,-0.39191 -0.141084,-0.90922 v -6.01176 h 1.285437 z" style="font-style:normal;font-variant:normal;font-weight:normal;font-stretch:normal;font-family:Gisha;-inkscape-font-specification:Gisha;fill:#000000;fill-opacity:1;stroke-width:0.40130711" id="path7579"/>
  </g>
  <circle style="fill: rgb(40, 167, 69);" cx="10.685" cy="1.557" r="1.735" transform="matrix(0.955451, 0, 0, 0.95855, 0.399095, 0.802705)"/>
  <circle style="fill: rgb(220, 53, 69);" cx="10.685" cy="1.557" r="1.735" transform="matrix(0.955451, 0, 0, 0.95855, 6.381251, 6.668431)"/>
</svg>