<?xml version="1.0" encoding="UTF-8" standalone="no"?>
<!DOCTYPE svg PUBLIC "-//W3C//DTD SVG 1.1//EN" "http://www.w3.org/Graphics/SVG/1.1/DTD/svg11.dtd">
<svg xmlns="http://www.w3.org/2000/svg" version="1.1" viewBox="0 0 320 240" width="320.0pt" height="240.0pt">
<path d="M 0.00 0.00 L 36.01 0.00 C 34.14 2.91 36.87 4.68 36.18 7.83 C 34.10 12.77 29.06 14.62 26.23 17.91 C 24.72 23.67 28.52 25.73 33.62 24.57 C 39.17 22.77 42.27 27.35 48.01 26.99 C 52.31 25.84 56.81 33.64 51.54 35.45 C 49.08 36.45 48.31 37.88 46.89 39.96 C 41.59 43.50 37.88 40.31 32.25 40.48 C 26.61 40.49 21.39 40.14 15.84 41.78 C 11.02 42.37 4.51 46.04 0.00 44.05 L 0.00 0.00 Z" fill="#eed4bb" />
<path d="M 36.01 0.00 L 39.11 0.00 C 35.38 2.52 39.66 9.30 42.99 10.02 C 47.47 11.15 52.26 11.69 56.87 11.84 C 60.48 9.65 63.90 6.81 66.74 3.69 C 67.93 5.08 68.95 6.39 70.71 7.10 C 66.88 8.57 69.96 10.82 70.47 13.67 C 73.54 14.25 76.79 13.90 79.90 14.15 C 78.38 19.97 70.42 17.49 66.00 18.05 C 63.16 17.67 60.33 19.12 59.58 15.43 C 56.65 17.36 52.94 19.85 49.32 19.91 C 50.19 10.13 40.95 13.81 36.18 7.83 C 36.87 4.68 34.14 2.91 36.01 0.00 Z" fill="#e6ad99" />
<path d="M 39.11 0.00 L 78.59 0.00 C 76.74 1.30 74.85 2.55 72.74 3.41 C 70.20 3.02 68.87 1.20 66.74 3.69 C 63.90 6.81 60.48 9.65 56.87 11.84 C 52.26 11.69 47.47 11.15 42.99 10.02 C 39.66 9.30 35.38 2.52 39.11 0.00 Z" fill="#c59691" />
<path d="M 78.59 0.00 L 79.48 0.00 C 79.50 4.10 78.89 6.79 83.11 8.96 C 90.86 8.28 99.03 6.36 106.87 6.84 C 108.75 5.89 110.30 4.36 112.18 3.38 C 120.68 7.56 129.67 6.64 138.99 8.64 C 145.66 5.59 155.04 4.62 160.53 0.00 L 200.45 0.00 C 201.84 6.76 196.35 4.43 191.96 6.93 C 181.52 6.37 169.15 6.09 159.40 10.41 C 147.14 12.80 135.43 14.26 122.98 11.86 C 119.10 10.76 117.89 13.72 114.31 14.13 C 116.11 10.70 116.48 10.20 113.02 7.86 C 110.36 11.65 103.71 16.05 100.54 10.42 C 99.74 8.61 97.45 10.02 95.99 10.10 C 91.28 12.32 87.33 10.45 82.31 10.68 C 77.01 8.93 77.56 1.01 70.71 7.10 C 68.95 6.39 67.93 5.08 66.74 3.69 C 68.87 1.20 70.20 3.02 72.74 3.41 C 74.85 2.55 76.74 1.30 78.59 0.00 Z" fill="#d99d90" />
<path d="M 79.48 0.00 L 160.53 0.00 C 155.04 4.62 145.66 5.59 138.99 8.64 C 129.67 6.64 120.68 7.56 112.18 3.38 C 110.30 4.36 108.75 5.89 106.87 6.84 C 99.03 6.36 90.86 8.28 83.11 8.96 C 78.89 6.79 79.50 4.10 79.48 0.00 Z" fill="#c8928e" />
<path d="M 200.45 0.00 L 218.81 0.00 C 220.05 7.53 224.46 1.58 229.27 4.45 C 235.60 3.64 241.05 2.54 247.38 4.73 C 252.17 7.99 257.33 2.59 262.94 5.01 C 274.19 5.42 285.74 6.67 297.00 6.08 C 301.05 5.22 303.22 8.04 306.84 8.62 C 310.79 5.91 315.42 7.21 320.00 7.12 L 320.00 12.98 C 305.21 15.05 290.95 16.53 275.97 15.01 C 271.92 15.56 271.92 12.73 269.57 10.43 C 261.35 10.06 253.29 12.13 244.83 10.33 C 241.82 9.95 238.46 8.69 235.45 9.25 C 234.33 14.48 234.19 13.92 229.01 14.07 C 222.11 15.28 217.82 11.81 211.68 10.88 L 211.16 10.88 C 210.51 7.41 212.15 -1.37 206.06 2.01 C 203.54 3.38 205.89 11.17 206.10 13.87 C 196.74 14.59 187.98 12.02 178.67 13.60 C 169.90 14.29 160.68 17.66 152.00 15.99 C 147.27 17.28 142.79 18.33 137.84 17.31 C 129.74 15.63 123.08 19.77 115.00 19.00 C 111.03 18.54 107.19 19.91 103.37 19.73 C 101.08 16.29 97.93 13.78 95.99 10.10 C 97.45 10.02 99.74 8.61 100.54 10.42 C 103.71 16.05 110.36 11.65 113.02 7.86 C 116.48 10.20 116.11 10.70 114.31 14.13 C 117.89 13.72 119.10 10.76 122.98 11.86 C 135.43 14.26 147.14 12.80 159.40 10.41 C 169.15 6.09 181.52 6.37 191.96 6.93 C 196.35 4.43 201.84 6.76 200.45 0.00 Z" fill="#eaa78e" />
<path d="M 218.81 0.00 L 320.00 0.00 L 320.00 7.12 C 315.42 7.21 310.79 5.91 306.84 8.62 C 303.22 8.04 301.05 5.22 297.00 6.08 C 285.74 6.67 274.19 5.42 262.94 5.01 C 257.33 2.59 252.17 7.99 247.38 4.73 C 241.05 2.54 235.60 3.64 229.27 4.45 C 224.46 1.58 220.05 7.53 218.81 0.00 Z" fill="#db9c8d" />
<path d="M 211.16 10.88 C 210.67 13.40 210.50 15.63 211.71 17.97 C 211.86 18.98 212.01 19.99 212.15 21.00 C 211.57 23.05 211.64 24.18 212.66 26.04 C 212.98 28.08 213.35 30.10 213.90 32.10 C 214.02 35.07 214.00 38.03 214.03 40.99 C 213.26 43.86 216.10 50.96 210.88 48.13 C 209.83 43.34 209.23 38.47 208.25 33.66 L 207.95 31.94 C 207.93 30.31 207.92 28.69 207.90 27.06 C 208.39 25.37 208.49 24.22 207.12 22.94 C 207.06 21.60 207.00 20.27 206.95 18.93 C 207.30 17.31 207.28 16.27 206.30 14.88 L 206.10 13.87 C 205.89 11.17 203.54 3.38 206.06 2.01 C 212.15 -1.37 210.51 7.41 211.16 10.88 Z" fill="#3d160b" />
<path d="M 82.31 10.68 C 87.33 10.45 91.28 12.32 95.99 10.10 C 97.93 13.78 101.08 16.29 103.37 19.73 C 107.19 19.91 111.03 18.54 115.00 19.00 C 123.08 19.77 129.74 15.63 137.84 17.31 C 142.79 18.33 147.27 17.28 152.00 15.99 C 160.68 17.66 169.90 14.29 178.67 13.60 C 187.98 12.02 196.74 14.59 206.10 13.87 L 206.30 14.88 C 202.35 18.12 193.35 16.57 188.62 15.42 C 171.38 16.23 155.60 20.09 138.99 22.04 C 124.76 16.25 108.49 25.68 95.01 21.47 C 90.36 21.52 86.86 23.71 82.61 21.45 C 73.77 17.22 67.42 23.72 58.17 21.69 C 53.52 20.24 49.64 22.29 45.03 22.01 C 40.86 22.54 45.23 15.67 40.55 15.47 C 38.23 20.83 27.30 26.64 26.23 17.91 C 29.06 14.62 34.10 12.77 36.18 7.83 C 40.95 13.81 50.19 10.13 49.32 19.91 C 52.94 19.85 56.65 17.36 59.58 15.43 C 60.33 19.12 63.16 17.67 66.00 18.05 C 70.42 17.49 78.38 19.97 79.90 14.15 C 76.79 13.90 73.54 14.25 70.47 13.67 C 69.96 10.82 66.88 8.57 70.71 7.10 C 77.56 1.01 77.01 8.93 82.31 10.68 Z" fill="#f2bc9d" />
<path d="M 235.45 9.25 C 238.46 8.69 241.82 9.95 244.83 10.33 C 253.29 12.13 261.35 10.06 269.57 10.43 C 271.92 12.73 271.92 15.56 275.97 15.01 C 290.95 16.53 305.21 15.05 320.00 12.98 L 320.00 16.11 C 304.62 16.06 289.50 18.96 273.99 18.00 C 264.29 16.72 255.05 17.30 245.40 17.46 C 239.67 15.28 238.06 15.30 232.70 18.23 C 226.80 17.91 221.34 18.75 215.83 16.25 C 212.59 15.62 213.27 16.13 212.99 18.93 L 212.83 21.00 L 212.15 21.00 C 212.01 19.99 211.86 18.98 211.71 17.97 C 212.23 15.54 212.41 13.30 211.68 10.88 C 217.82 11.81 222.11 15.28 229.01 14.07 C 234.19 13.92 234.33 14.48 235.45 9.25 Z" fill="#f7bb8e" />
<path d="M 211.16 10.88 L 211.68 10.88 C 212.41 13.30 212.23 15.54 211.71 17.97 C 210.50 15.63 210.67 13.40 211.16 10.88 Z" fill="#8b5842" />
<path d="M 40.55 15.47 C 45.23 15.67 40.86 22.54 45.03 22.01 C 49.64 22.29 53.52 20.24 58.17 21.69 C 67.42 23.72 73.77 17.22 82.61 21.45 C 86.86 23.71 90.36 21.52 95.01 21.47 C 108.49 25.68 124.76 16.25 138.99 22.04 C 155.60 20.09 171.38 16.23 188.62 15.42 C 193.35 16.57 202.35 18.12 206.30 14.88 C 205.88 15.89 205.69 16.95 205.71 18.05 C 196.92 21.63 186.41 13.48 178.79 18.77 C 174.14 21.67 169.19 18.78 164.52 22.32 C 164.92 23.82 165.50 25.20 165.78 26.74 C 158.70 30.28 151.77 27.60 145.81 33.41 C 141.22 29.95 139.62 36.94 143.18 38.33 C 148.35 37.74 152.29 40.15 157.20 41.34 C 155.47 41.70 153.74 41.99 151.98 42.18 C 149.39 40.68 148.12 38.79 145.27 41.29 C 141.05 43.77 135.20 44.95 130.34 45.42 C 121.16 43.17 109.34 48.37 100.19 44.86 C 94.94 41.91 92.49 47.59 86.73 45.81 C 87.05 41.86 81.24 47.18 78.99 46.42 C 77.66 46.64 76.33 46.88 74.99 47.08 C 73.25 44.35 71.81 47.18 69.15 45.90 C 62.93 44.02 58.60 43.59 52.15 44.57 C 47.86 42.58 46.04 44.17 42.80 46.95 C 42.15 41.60 37.71 45.36 34.38 44.51 C 30.63 43.29 27.14 42.86 23.21 42.64 C 20.76 42.13 18.35 41.84 15.84 41.78 C 21.39 40.14 26.61 40.49 32.25 40.48 C 37.88 40.31 41.59 43.50 46.89 39.96 C 48.31 37.88 49.08 36.45 51.54 35.45 C 56.81 33.64 52.31 25.84 48.01 26.99 C 42.27 27.35 39.17 22.77 33.62 24.57 C 28.52 25.73 24.72 23.67 26.23 17.91 C 27.30 26.64 38.23 20.83 40.55 15.47 Z" fill="#f7d5af" />
<path d="M 206.30 14.88 C 207.28 16.27 207.30 17.31 206.95 18.93 L 205.71 18.05 C 205.69 16.95 205.88 15.89 206.30 14.88 Z" fill="#a17256" />
<path d="M 215.83 16.25 C 221.34 18.75 226.80 17.91 232.70 18.23 C 238.06 15.30 239.67 15.28 245.40 17.46 C 255.05 17.30 264.29 16.72 273.99 18.00 C 289.50 18.96 304.62 16.06 320.00 16.11 L 320.00 28.96 C 315.35 29.01 310.95 30.33 306.28 30.03 C 310.97 25.74 302.79 26.74 300.40 26.43 C 292.76 24.72 285.89 28.22 278.37 26.59 C 274.40 25.76 270.48 25.24 266.45 24.89 C 266.89 23.73 268.26 23.23 266.80 22.23 C 263.73 19.48 257.51 22.30 253.80 20.13 C 250.49 18.15 247.25 21.21 243.69 19.26 C 235.50 14.45 231.66 25.46 221.99 25.05 C 216.70 25.51 221.62 22.04 218.09 19.95 C 217.00 18.65 214.53 19.12 212.99 18.93 C 213.27 16.13 212.59 15.62 215.83 16.25 Z" fill="#f8dfaa" />
<path d="M 205.71 18.05 L 206.95 18.93 C 207.00 20.27 207.06 21.60 207.12 22.94 C 206.62 24.62 206.49 25.81 207.90 27.06 C 207.92 28.69 207.93 30.31 207.95 31.94 C 204.21 32.00 200.86 31.69 197.39 33.38 C 196.27 36.17 195.83 39.31 195.09 42.23 C 193.69 36.65 188.15 40.75 184.20 40.56 C 175.43 40.00 165.71 42.50 157.20 41.34 C 152.29 40.15 148.35 37.74 143.18 38.33 C 139.62 36.94 141.22 29.95 145.81 33.41 C 151.77 27.60 158.70 30.28 165.78 26.74 C 165.50 25.20 164.92 23.82 164.52 22.32 C 169.19 18.78 174.14 21.67 178.79 18.77 C 186.41 13.48 196.92 21.63 205.71 18.05 Z" fill="#f7e4b2" />
<path d="M 243.69 19.26 C 247.25 21.21 250.49 18.15 253.80 20.13 C 257.51 22.30 263.73 19.48 266.80 22.23 C 268.26 23.23 266.89 23.73 266.45 24.89 C 270.48 25.24 274.40 25.76 278.37 26.59 C 285.89 28.22 292.76 24.72 300.40 26.43 C 302.79 26.74 310.97 25.74 306.28 30.03 C 310.95 30.33 315.35 29.01 320.00 28.96 L 320.00 36.11 C 308.15 35.47 296.64 36.24 285.09 39.03 C 280.19 39.54 273.87 37.42 270.15 41.09 C 268.89 42.27 266.12 42.49 264.87 41.25 C 262.35 39.74 267.16 40.15 268.00 39.59 C 264.87 37.20 262.37 38.53 259.03 39.54 C 260.18 39.98 262.32 39.85 262.97 40.99 C 260.01 41.36 257.73 40.25 255.05 39.28 C 253.50 40.42 253.19 41.91 250.99 41.23 C 250.25 38.08 249.71 34.64 248.30 31.71 C 245.24 30.30 240.41 31.03 237.04 31.20 C 229.26 32.70 221.87 31.67 213.90 32.10 C 213.35 30.10 212.98 28.08 212.66 26.04 C 213.18 24.29 213.35 22.77 212.83 21.00 L 212.99 18.93 C 214.53 19.12 217.00 18.65 218.09 19.95 C 221.62 22.04 216.70 25.51 221.99 25.05 C 231.66 25.46 235.50 14.45 243.69 19.26 Z" fill="#f6efb3" />
<path d="M 212.15 21.00 L 212.83 21.00 C 213.35 22.77 213.18 24.29 212.66 26.04 C 211.64 24.18 211.57 23.05 212.15 21.00 Z" fill="#9c8260" />
<path d="M 207.12 22.94 C 208.49 24.22 208.39 25.37 207.90 27.06 C 206.49 25.81 206.62 24.62 207.12 22.94 Z" fill="#9b7b5f" />
<path d="M 237.04 31.20 C 240.41 31.03 245.24 30.30 248.30 31.71 C 249.71 34.64 250.25 38.08 250.99 41.23 C 251.77 45.46 252.53 49.70 253.10 53.97 C 252.99 54.99 252.86 56.01 252.71 57.02 C 250.28 50.42 250.37 39.85 242.87 36.15 C 241.19 34.76 232.65 36.21 236.70 33.05 C 234.46 32.97 232.22 33.00 229.98 33.02 C 225.46 33.09 220.78 32.64 216.30 33.28 C 214.23 34.35 215.23 39.00 214.91 41.01 L 214.03 40.99 C 214.00 38.03 214.02 35.07 213.90 32.10 C 221.87 31.67 229.26 32.70 237.04 31.20 Z" fill="#e1af7a" />
<path d="M 207.95 31.94 L 208.25 33.66 C 205.68 35.07 202.72 35.77 200.22 37.23 C 196.46 42.50 197.68 48.22 195.34 54.38 C 194.12 57.90 197.90 57.42 200.15 58.41 C 198.19 58.72 196.23 58.93 194.28 59.24 C 190.92 62.64 191.44 74.07 189.78 79.26 C 189.25 82.60 188.19 85.71 188.09 89.11 C 188.02 90.41 187.93 91.71 187.82 93.01 C 183.03 91.43 181.95 92.85 186.01 88.67 C 181.32 87.69 173.66 83.13 169.20 87.07 C 153.36 83.53 135.15 85.50 118.00 85.00 C 108.25 85.12 98.47 84.73 88.73 85.23 C 88.50 84.52 88.28 83.81 88.06 83.09 C 99.83 85.18 112.94 83.42 125.00 84.00 C 138.07 83.88 151.16 84.26 164.22 83.78 C 169.56 84.18 174.87 84.05 180.21 83.77 C 184.13 83.71 188.21 85.72 187.98 79.93 C 189.84 67.30 192.82 54.82 195.09 42.23 C 195.83 39.31 196.27 36.17 197.39 33.38 C 200.86 31.69 204.21 32.00 207.95 31.94 Z" fill="#dea984" />
<path d="M 216.30 33.28 C 220.78 32.64 225.46 33.09 229.98 33.02 C 230.35 33.65 230.23 35.90 231.25 35.75 C 242.64 37.75 251.99 45.67 250.17 58.03 C 246.15 58.46 245.04 56.11 242.11 54.20 C 235.30 58.48 226.54 52.57 218.75 55.79 C 217.94 55.80 217.13 55.78 216.32 55.73 C 215.75 50.80 214.87 45.99 214.91 41.01 C 215.23 39.00 214.23 34.35 216.30 33.28 Z" fill="#f6efaf" />
<path d="M 229.98 33.02 C 232.22 33.00 234.46 32.97 236.70 33.05 C 232.65 36.21 241.19 34.76 242.87 36.15 C 250.37 39.85 250.28 50.42 252.71 57.02 C 252.86 56.01 252.99 54.99 253.10 53.97 L 253.92 54.04 C 254.39 57.09 254.88 60.09 254.85 63.19 C 253.65 60.19 254.28 57.90 250.17 58.03 C 251.99 45.67 242.64 37.75 231.25 35.75 C 230.23 35.90 230.35 33.65 229.98 33.02 Z" fill="#f6d694" />
<path d="M 208.25 33.66 C 209.23 38.47 209.83 43.34 210.88 48.13 C 211.15 54.06 214.37 56.35 206.64 57.88 C 204.47 58.00 202.31 58.16 200.15 58.41 C 197.90 57.42 194.12 57.90 195.34 54.38 C 197.68 48.22 196.46 42.50 200.22 37.23 C 202.72 35.77 205.68 35.07 208.25 33.66 Z" fill="#f4e1a0" />
<path d="M 320.00 36.11 L 320.00 72.03 C 302.47 72.12 288.08 81.95 270.88 82.92 C 273.56 81.54 275.40 79.72 277.37 77.51 C 287.64 78.35 297.86 69.10 307.24 67.18 C 308.31 66.58 309.27 65.82 310.19 65.01 C 306.75 62.38 303.33 59.97 298.98 59.23 C 302.89 56.29 302.29 57.56 299.13 54.29 C 302.10 53.84 305.05 53.37 307.97 52.66 C 306.53 50.36 303.36 51.70 300.98 51.12 C 295.20 50.74 292.33 45.72 287.05 44.90 C 285.00 44.44 283.08 43.75 281.23 42.74 C 281.77 40.58 283.31 40.02 285.09 39.03 C 296.64 36.24 308.15 35.47 320.00 36.11 Z" fill="#f7e398" />
<path d="M 268.00 39.59 C 267.16 40.15 262.35 39.74 264.87 41.25 C 266.12 42.49 268.89 42.27 270.15 41.09 C 273.87 37.42 280.19 39.54 285.09 39.03 C 283.31 40.02 281.77 40.58 281.23 42.74 C 283.08 43.75 285.00 44.44 287.05 44.90 C 292.33 45.72 295.20 50.74 300.98 51.12 C 303.36 51.70 306.53 50.36 307.97 52.66 C 305.05 53.37 302.10 53.84 299.13 54.29 C 302.29 57.56 302.89 56.29 298.98 59.23 C 303.33 59.97 306.75 62.38 310.19 65.01 C 309.27 65.82 308.31 66.58 307.24 67.18 C 297.86 69.10 287.64 78.35 277.37 77.51 C 275.40 79.72 273.56 81.54 270.88 82.92 C 268.46 82.95 266.11 83.07 263.77 83.78 C 259.73 83.63 257.73 85.67 257.85 80.23 C 262.51 81.38 267.09 74.36 266.48 70.30 C 268.61 68.16 271.77 68.88 272.81 65.36 C 269.96 64.37 265.81 64.78 264.68 61.34 C 262.75 56.87 259.43 53.40 255.66 50.43 C 253.22 48.86 254.37 52.76 253.92 54.04 L 253.10 53.97 C 252.53 49.70 251.77 45.46 250.99 41.23 C 253.19 41.91 253.50 40.42 255.05 39.28 C 257.73 40.25 260.01 41.36 262.97 40.99 C 262.32 39.85 260.18 39.98 259.03 39.54 C 262.37 38.53 264.87 37.20 268.00 39.59 Z" fill="#f6f39d" />
<path d="M 195.09 42.23 C 192.82 54.82 189.84 67.30 187.98 79.93 C 187.27 80.85 186.54 81.82 185.71 82.63 C 178.95 82.33 172.44 80.50 166.34 77.63 C 162.93 77.07 170.47 73.77 166.96 73.22 C 162.97 73.05 159.47 71.48 161.46 67.09 C 159.40 66.77 151.46 67.44 152.10 64.06 C 155.44 63.81 161.12 66.80 163.25 63.27 C 164.77 61.58 161.61 59.79 162.67 57.66 C 162.91 50.38 172.75 48.82 178.11 46.12 C 181.95 43.32 188.47 47.30 184.20 40.56 C 188.15 40.75 193.69 36.65 195.09 42.23 Z" fill="#f6f09d" />
<path d="M 151.98 42.18 C 153.53 43.62 154.91 44.04 153.31 46.29 C 149.19 48.61 143.20 47.40 138.59 48.16 C 140.04 55.81 132.86 53.73 128.01 54.44 C 130.45 56.72 132.77 58.85 135.02 61.40 C 138.22 59.03 138.47 64.72 138.41 66.63 C 140.74 67.89 143.11 68.33 145.18 69.92 C 144.24 70.98 143.20 71.93 142.21 72.94 C 147.24 72.93 152.11 72.85 156.98 74.37 C 152.87 77.16 148.65 76.92 143.93 77.30 C 154.65 79.30 168.96 81.56 180.21 83.77 C 174.87 84.05 169.56 84.18 164.22 83.78 C 146.72 79.62 129.44 79.93 112.27 75.97 C 118.83 71.28 109.19 71.51 105.93 71.96 C 101.52 73.85 97.22 71.86 92.96 73.57 C 89.65 71.37 86.66 72.24 84.76 68.18 C 83.63 63.85 82.60 59.49 81.56 55.13 C 81.94 52.19 86.15 53.01 88.39 52.62 C 94.39 52.71 100.30 49.96 105.66 52.33 C 108.43 53.18 112.45 52.15 114.97 50.86 C 113.77 47.81 107.59 48.88 104.86 48.20 C 96.41 45.58 88.65 49.85 80.01 47.15 L 78.99 46.42 C 81.24 47.18 87.05 41.86 86.73 45.81 C 92.49 47.59 94.94 41.91 100.19 44.86 C 109.34 48.37 121.16 43.17 130.34 45.42 C 135.20 44.95 141.05 43.77 145.27 41.29 C 148.12 38.79 149.39 40.68 151.98 42.18 Z" fill="#f8ce99" />
<path d="M 184.20 40.56 C 188.47 47.30 181.95 43.32 178.11 46.12 C 172.75 48.82 162.91 50.38 162.67 57.66 C 161.61 59.79 164.77 61.58 163.25 63.27 C 161.12 66.80 155.44 63.81 152.10 64.06 C 151.46 67.44 159.40 66.77 161.46 67.09 C 159.47 71.48 162.97 73.05 166.96 73.22 C 170.47 73.77 162.93 77.07 166.34 77.63 C 172.44 80.50 178.95 82.33 185.71 82.63 C 186.54 81.82 187.27 80.85 187.98 79.93 C 188.21 85.72 184.13 83.71 180.21 83.77 C 168.96 81.56 154.65 79.30 143.93 77.30 C 148.65 76.92 152.87 77.16 156.98 74.37 C 152.11 72.85 147.24 72.93 142.21 72.94 C 143.20 71.93 144.24 70.98 145.18 69.92 C 143.11 68.33 140.74 67.89 138.41 66.63 C 138.47 64.72 138.22 59.03 135.02 61.40 C 132.77 58.85 130.45 56.72 128.01 54.44 C 132.86 53.73 140.04 55.81 138.59 48.16 C 143.20 47.40 149.19 48.61 153.31 46.29 C 154.91 44.04 153.53 43.62 151.98 42.18 C 153.74 41.99 155.47 41.70 157.20 41.34 C 165.71 42.50 175.43 40.00 184.20 40.56 Z" fill="#f7dd9a" />
<path d="M 214.03 40.99 L 214.91 41.01 C 214.87 45.99 215.75 50.80 216.32 55.73 C 217.13 55.78 217.94 55.80 218.75 55.79 C 224.10 55.75 228.02 56.00 233.02 57.92 C 238.18 57.90 241.91 57.54 246.93 59.01 C 244.82 60.87 244.79 64.12 245.40 66.64 C 247.09 72.77 249.31 78.55 253.70 83.30 C 257.30 86.65 254.12 90.68 257.66 94.26 L 258.07 94.90 C 255.00 93.33 248.92 96.54 248.59 92.27 C 250.78 89.57 253.09 89.42 250.16 85.94 C 246.08 80.55 244.67 74.45 242.89 68.09 C 242.63 64.94 237.16 66.96 234.98 66.18 C 230.16 66.74 224.33 64.80 219.96 66.80 C 218.91 67.26 217.85 67.73 216.80 68.20 C 215.93 64.91 217.37 62.40 217.83 59.15 C 215.73 59.05 212.48 58.45 210.69 59.68 C 209.66 61.40 210.00 64.10 209.77 66.07 C 208.63 63.38 207.81 60.57 206.64 57.88 C 214.37 56.35 211.15 54.06 210.88 48.13 C 216.10 50.96 213.26 43.86 214.03 40.99 Z" fill="#9a4b28" />
<path d="M 15.84 41.78 C 18.35 41.84 20.76 42.13 23.21 42.64 C 17.87 43.27 15.06 42.04 16.13 48.89 C 25.36 47.08 32.68 53.15 42.00 52.00 C 51.69 52.84 61.20 51.39 70.88 52.18 C 73.04 52.51 74.54 53.40 76.03 54.97 C 77.57 61.20 78.87 67.49 80.29 73.75 C 75.46 74.21 76.54 69.59 71.83 69.40 C 59.09 68.67 49.89 61.22 37.19 65.12 C 32.69 63.44 28.09 62.58 23.29 62.43 C 19.97 62.78 17.72 68.28 14.07 65.93 C 8.89 61.63 6.59 67.81 0.00 65.92 L 0.00 44.05 C 4.51 46.04 11.02 42.37 15.84 41.78 Z" fill="#f5c79f" />
<path d="M 23.21 42.64 C 27.14 42.86 30.63 43.29 34.38 44.51 C 37.71 45.36 42.15 41.60 42.80 46.95 C 46.04 44.17 47.86 42.58 52.15 44.57 C 58.60 43.59 62.93 44.02 69.15 45.90 C 71.81 47.18 73.25 44.35 74.99 47.08 C 75.08 49.76 75.47 52.36 76.03 54.97 C 74.54 53.40 73.04 52.51 70.88 52.18 C 61.20 51.39 51.69 52.84 42.00 52.00 C 32.68 53.15 25.36 47.08 16.13 48.89 C 15.06 42.04 17.87 43.27 23.21 42.64 Z" fill="#e5b49a" />
<path d="M 78.99 46.42 L 80.01 47.15 C 80.47 49.82 80.96 52.49 81.56 55.13 C 82.60 59.49 83.63 63.85 84.76 68.18 C 85.79 73.22 86.54 78.15 88.06 83.09 C 88.28 83.81 88.50 84.52 88.73 85.23 C 88.86 86.14 88.99 87.05 89.13 87.96 C 89.61 91.02 90.33 94.05 90.94 97.09 C 91.25 101.85 93.29 106.09 93.86 110.81 C 93.36 113.38 90.25 115.63 94.93 114.44 C 90.97 116.91 99.25 121.22 93.92 120.53 C 93.01 120.41 92.12 120.26 91.23 120.08 C 89.40 115.20 88.52 110.12 87.78 104.98 C 86.98 101.29 86.12 97.60 85.29 93.92 C 84.91 92.60 84.44 91.30 84.02 89.99 C 83.83 88.61 83.66 87.24 83.39 85.88 C 83.10 84.18 82.78 82.48 82.34 80.81 C 81.75 78.44 81.01 76.09 80.29 73.75 C 78.87 67.49 77.57 61.20 76.03 54.97 C 75.47 52.36 75.08 49.76 74.99 47.08 C 76.33 46.88 77.66 46.64 78.99 46.42 Z" fill="#3b190f" />
<path d="M 80.01 47.15 C 88.65 49.85 96.41 45.58 104.86 48.20 C 107.59 48.88 113.77 47.81 114.97 50.86 C 112.45 52.15 108.43 53.18 105.66 52.33 C 100.30 49.96 94.39 52.71 88.39 52.62 C 86.15 53.01 81.94 52.19 81.56 55.13 C 80.96 52.49 80.47 49.82 80.01 47.15 Z" fill="#f3b891" />
<path d="M 255.66 50.43 C 259.43 53.40 262.75 56.87 264.68 61.34 C 265.81 64.78 269.96 64.37 272.81 65.36 C 271.77 68.88 268.61 68.16 266.48 70.30 C 267.09 74.36 262.51 81.38 257.85 80.23 C 256.50 74.63 255.49 68.91 254.85 63.19 C 254.88 60.09 254.39 57.09 253.92 54.04 C 254.37 52.76 253.22 48.86 255.66 50.43 Z" fill="#f6f3b4" />
<path d="M 242.11 54.20 C 245.04 56.11 246.15 58.46 250.17 58.03 C 254.28 57.90 253.65 60.19 254.85 63.19 C 255.49 68.91 256.50 74.63 257.85 80.23 C 257.73 85.67 259.73 83.63 263.77 83.78 C 267.92 83.97 272.08 84.01 276.23 84.26 C 271.42 85.66 267.12 84.62 262.17 85.18 C 260.66 89.15 272.03 84.94 265.76 88.92 C 259.98 89.22 262.95 93.26 259.92 96.09 C 259.30 95.69 258.68 95.30 258.07 94.90 L 257.66 94.26 C 258.70 84.90 253.64 75.20 253.01 66.01 C 252.92 60.02 253.84 58.62 246.93 59.01 C 241.91 57.54 238.18 57.90 233.02 57.92 C 228.02 56.00 224.10 55.75 218.75 55.79 C 226.54 52.57 235.30 58.48 242.11 54.20 Z" fill="#d1976f" />
<path d="M 200.15 58.41 C 202.31 58.16 204.47 58.00 206.64 57.88 C 207.81 60.57 208.63 63.38 209.77 66.07 C 210.18 67.05 210.58 68.04 210.97 69.02 C 205.18 65.73 203.40 64.82 197.13 67.95 C 191.84 64.74 194.41 64.14 194.28 59.24 C 196.23 58.93 198.19 58.72 200.15 58.41 Z" fill="#a95c40" />
<path d="M 194.28 59.24 C 194.41 64.14 191.84 64.74 197.13 67.95 C 203.40 64.82 205.18 65.73 210.97 69.02 C 211.82 71.26 212.77 73.10 211.99 75.51 C 211.18 78.14 213.43 83.88 215.31 85.75 C 218.87 87.48 218.76 81.18 219.03 79.10 C 219.04 78.11 219.01 77.13 218.95 76.14 C 223.16 79.97 220.34 82.05 218.85 86.45 C 215.99 88.64 216.29 93.76 215.15 97.01 L 214.23 96.86 C 211.59 92.56 211.71 87.75 209.61 83.31 C 204.67 81.99 204.39 83.91 203.20 87.97 C 202.55 88.45 201.89 88.91 201.22 89.36 C 199.51 89.20 197.79 89.03 196.08 88.83 C 198.87 87.41 201.32 85.90 202.96 83.14 C 201.05 82.29 199.05 81.75 197.14 80.91 C 198.08 79.73 199.13 78.64 200.02 77.41 C 197.67 77.64 194.92 77.11 192.69 77.73 C 191.19 80.16 191.31 82.45 191.50 85.17 C 189.41 86.06 188.99 87.10 188.09 89.11 C 188.19 85.71 189.25 82.60 189.78 79.26 C 191.44 74.07 190.92 62.64 194.28 59.24 Z" fill="#d67956" />
<path d="M 217.83 59.15 C 217.37 62.40 215.93 64.91 216.80 68.20 C 217.01 71.21 216.83 73.73 218.95 76.14 C 219.01 77.13 219.04 78.11 219.03 79.10 C 215.41 81.47 216.05 75.92 211.99 75.51 C 212.77 73.10 211.82 71.26 210.97 69.02 C 210.58 68.04 210.18 67.05 209.77 66.07 C 210.00 64.10 209.66 61.40 210.69 59.68 C 212.48 58.45 215.73 59.05 217.83 59.15 Z" fill="#6a2a16" />
<path d="M 246.93 59.01 C 253.84 58.62 252.92 60.02 253.01 66.01 C 253.64 75.20 258.70 84.90 257.66 94.26 C 254.12 90.68 257.30 86.65 253.70 83.30 C 249.31 78.55 247.09 72.77 245.40 66.64 C 244.79 64.12 244.82 60.87 246.93 59.01 Z" fill="#a76642" />
<path d="M 23.29 62.43 C 28.09 62.58 32.69 63.44 37.19 65.12 C 49.89 61.22 59.09 68.67 71.83 69.40 C 76.54 69.59 75.46 74.21 80.29 73.75 C 81.01 76.09 81.75 78.44 82.34 80.81 C 81.73 82.71 82.87 85.39 79.97 84.96 C 53.33 84.99 26.64 85.12 0.00 84.89 L 0.00 65.92 C 6.59 67.81 8.89 61.63 14.07 65.93 C 17.72 68.28 19.97 62.78 23.29 62.43 Z" fill="#f3bc96" />
<path d="M 234.98 66.18 C 237.16 66.96 242.63 64.94 242.89 68.09 C 244.67 74.45 246.08 80.55 250.16 85.94 C 248.31 88.03 247.64 91.77 244.16 90.70 C 240.17 89.77 235.86 92.93 234.97 96.86 C 234.73 97.64 234.50 98.44 234.28 99.23 C 230.77 95.99 225.02 96.08 220.60 96.79 C 220.70 95.23 220.80 93.66 220.85 92.09 C 227.65 95.57 229.71 89.72 236.76 90.51 C 237.75 88.35 236.43 79.74 239.58 86.83 C 243.35 82.17 234.74 82.38 233.26 78.53 C 234.88 77.72 236.45 77.20 237.75 75.88 C 236.97 73.38 234.85 72.33 236.60 69.72 C 237.94 67.44 234.19 67.54 232.89 67.74 C 228.43 68.44 224.31 67.64 219.96 66.80 C 224.33 64.80 230.16 66.74 234.98 66.18 Z" fill="#d97147" />
<path d="M 219.96 66.80 C 224.31 67.64 228.43 68.44 232.89 67.74 C 234.19 67.54 237.94 67.44 236.60 69.72 C 234.85 72.33 236.97 73.38 237.75 75.88 C 236.45 77.20 234.88 77.72 233.26 78.53 C 234.74 82.38 243.35 82.17 239.58 86.83 C 236.43 79.74 237.75 88.35 236.76 90.51 C 229.71 89.72 227.65 95.57 220.85 92.09 C 219.67 90.35 219.24 88.48 218.85 86.45 C 220.34 82.05 223.16 79.97 218.95 76.14 C 216.83 73.73 217.01 71.21 216.80 68.20 C 217.85 67.73 218.91 67.26 219.96 66.80 Z" fill="#ee8c59" />
<path d="M 84.76 68.18 C 86.66 72.24 89.65 71.37 92.96 73.57 C 97.22 71.86 101.52 73.85 105.93 71.96 C 109.19 71.51 118.83 71.28 112.27 75.97 C 129.44 79.93 146.72 79.62 164.22 83.78 C 151.16 84.26 138.07 83.88 125.00 84.00 C 112.94 83.42 99.83 85.18 88.06 83.09 C 86.54 78.15 85.79 73.22 84.76 68.18 Z" fill="#f8bd91" />
<path d="M 227.06 69.19 C 230.05 68.84 233.03 68.92 236.02 69.21 C 233.72 70.98 227.30 74.59 227.06 69.19 Z" fill="#fdba7a" />
<path d="M 320.00 72.03 L 320.00 84.07 C 305.43 84.08 290.78 83.71 276.23 84.26 C 272.08 84.01 267.92 83.97 263.77 83.78 C 266.11 83.07 268.46 82.95 270.88 82.92 C 288.08 81.95 302.47 72.12 320.00 72.03 Z" fill="#f6bf89" />
<path d="M 230.34 78.93 C 228.37 73.49 225.97 78.34 222.10 77.92 C 219.82 69.91 236.66 76.00 230.34 78.93 Z" fill="#fbba7c" />
<path d="M 211.99 75.51 C 216.05 75.92 215.41 81.47 219.03 79.10 C 218.76 81.18 218.87 87.48 215.31 85.75 C 213.43 83.88 211.18 78.14 211.99 75.51 Z" fill="#9c3e1e" />
<path d="M 200.02 77.41 C 199.13 78.64 198.08 79.73 197.14 80.91 C 199.05 81.75 201.05 82.29 202.96 83.14 C 201.32 85.90 198.87 87.41 196.08 88.83 C 197.79 89.03 199.51 89.20 201.22 89.36 C 198.30 91.91 190.75 87.41 192.77 95.09 C 183.58 92.89 188.90 105.31 192.24 108.74 C 191.43 108.53 190.61 108.32 189.80 108.10 C 187.07 104.07 186.40 99.59 185.22 94.99 C 186.54 94.49 187.45 94.61 187.82 93.01 C 187.93 91.71 188.02 90.41 188.09 89.11 C 188.99 87.10 189.41 86.06 191.50 85.17 C 191.31 82.45 191.19 80.16 192.69 77.73 C 194.92 77.11 197.67 77.64 200.02 77.41 Z" fill="#b46244" />
<path d="M 230.34 78.93 C 230.74 80.82 233.93 83.67 229.85 82.27 C 225.32 82.67 226.69 76.66 230.34 78.93 Z" fill="#c35929" />
<path d="M 82.34 80.81 C 82.78 82.48 83.10 84.18 83.39 85.88 C 76.17 87.12 68.28 84.77 60.84 86.71 C 53.84 87.58 47.86 84.18 40.72 87.22 C 39.99 87.13 39.26 87.05 38.53 86.96 C 34.74 85.37 30.12 86.12 26.00 86.00 C 18.92 86.25 12.74 85.16 6.20 87.21 C 4.13 87.12 2.06 86.98 0.00 86.83 L 0.00 84.89 C 26.64 85.12 53.33 84.99 79.97 84.96 C 82.87 85.39 81.73 82.71 82.34 80.81 Z" fill="#ac877a" />
<path d="M 209.61 83.31 C 211.71 87.75 211.59 92.56 214.23 96.86 L 212.28 97.27 C 208.01 96.66 202.98 97.83 199.05 96.05 C 200.92 95.77 205.54 96.78 206.49 94.83 C 205.89 92.19 207.23 87.34 203.20 87.97 C 204.39 83.91 204.67 81.99 209.61 83.31 Z" fill="#d75b37" />
<path d="M 276.23 84.26 C 290.78 83.71 305.43 84.08 320.00 84.07 L 320.00 84.99 C 308.58 87.15 296.64 85.16 285.32 86.34 C 282.98 86.87 281.60 88.43 279.85 89.91 C 275.32 89.90 269.96 90.72 265.76 88.92 C 272.03 84.94 260.66 89.15 262.17 85.18 C 267.12 84.62 271.42 85.66 276.23 84.26 Z" fill="#b67968" />
<path d="M 88.73 85.23 C 98.47 84.73 108.25 85.12 118.00 85.00 C 135.15 85.50 153.36 83.53 169.20 87.07 C 173.66 83.13 181.32 87.69 186.01 88.67 C 181.95 92.85 183.03 91.43 187.82 93.01 C 187.45 94.61 186.54 94.49 185.22 94.99 C 183.56 94.74 181.89 94.67 180.22 94.59 C 174.45 94.83 170.41 91.21 165.07 91.03 C 165.83 92.40 166.76 93.65 167.66 94.94 C 164.69 95.03 161.73 95.08 158.77 95.30 C 156.92 95.10 155.06 94.95 153.19 94.81 C 148.01 92.31 145.72 91.96 140.07 92.98 C 132.71 87.99 124.64 94.00 116.69 92.84 C 117.08 89.90 113.46 93.08 111.30 91.93 C 107.69 93.67 102.09 91.22 104.45 87.01 C 100.44 86.87 91.52 84.26 89.13 87.96 C 88.99 87.05 88.86 86.14 88.73 85.23 Z" fill="#b28e8c" />
<path d="M 320.00 84.99 L 320.00 95.07 C 308.18 96.00 297.00 95.30 285.20 94.83 C 282.99 94.11 280.39 94.15 278.95 92.23 C 285.72 91.12 297.64 93.31 302.79 91.13 C 295.04 91.29 287.62 89.50 279.85 89.91 C 281.60 88.43 282.98 86.87 285.32 86.34 C 296.64 85.16 308.58 87.15 320.00 84.99 Z" fill="#9b7c81" />
<path d="M 26.00 86.00 C 30.12 86.12 34.74 85.37 38.53 86.96 C 31.28 88.35 23.41 90.50 16.05 89.22 C 11.14 90.01 6.73 90.83 2.06 88.45 C 3.43 88.02 4.82 87.63 6.20 87.21 C 12.74 85.16 18.92 86.25 26.00 86.00 Z" fill="#82706f" />
<path d="M 60.84 86.71 C 68.28 84.77 76.17 87.12 83.39 85.88 C 83.66 87.24 83.83 88.61 84.02 89.99 C 76.77 89.84 70.07 90.58 62.96 89.19 C 56.65 88.00 46.00 91.44 40.72 87.22 C 47.86 84.18 53.84 87.58 60.84 86.71 Z" fill="#866b68" />
<path d="M 104.45 87.01 C 102.09 91.22 107.69 93.67 111.30 91.93 C 113.46 93.08 117.08 89.90 116.69 92.84 C 124.64 94.00 132.71 87.99 140.07 92.98 C 145.72 91.96 148.01 92.31 153.19 94.81 C 149.00 95.33 145.15 94.67 141.04 94.10 C 133.63 96.28 126.23 97.42 118.96 94.09 C 110.70 96.23 98.16 94.09 91.72 96.61 L 90.94 97.09 C 90.33 94.05 89.61 91.02 89.13 87.96 C 91.52 84.26 100.44 86.87 104.45 87.01 Z" fill="#968389" />
<path d="M 250.16 85.94 C 253.09 89.42 250.78 89.57 248.59 92.27 C 248.92 96.54 255.00 93.33 258.07 94.90 C 258.68 95.30 259.30 95.69 259.92 96.09 C 259.45 99.47 259.71 102.33 257.17 105.04 C 256.09 101.40 254.08 100.76 257.77 98.02 C 250.51 96.58 242.16 96.17 234.97 96.86 C 235.86 92.93 240.17 89.77 244.16 90.70 C 247.64 91.77 248.31 88.03 250.16 85.94 Z" fill="#c65831" />
<path d="M 0.00 86.83 C 2.06 86.98 4.13 87.12 6.20 87.21 C 4.82 87.63 3.43 88.02 2.06 88.45 C 6.73 90.83 11.14 90.01 16.05 89.22 C 23.41 90.50 31.28 88.35 38.53 86.96 C 39.26 87.05 39.99 87.13 40.72 87.22 C 46.00 91.44 56.65 88.00 62.96 89.19 C 70.07 90.58 76.77 89.84 84.02 89.99 C 84.44 91.30 84.91 92.60 85.29 93.92 C 85.30 97.32 79.39 95.64 77.22 95.79 C 73.07 94.36 68.89 94.69 64.68 93.87 C 52.11 96.35 37.79 94.29 25.05 93.11 C 20.52 95.10 16.41 92.98 13.68 96.98 C 9.12 97.01 4.56 97.05 0.00 96.89 L 0.00 86.83 Z" fill="#8d8792" />
<path d="M 218.85 86.45 C 219.24 88.48 219.67 90.35 220.85 92.09 C 220.80 93.66 220.70 95.23 220.60 96.79 C 219.82 99.69 220.72 101.21 221.96 103.73 C 221.62 104.46 221.29 105.19 220.96 105.93 C 215.48 106.46 218.23 104.96 217.89 101.09 C 215.62 100.92 215.86 103.73 215.00 105.24 C 213.92 102.39 217.42 98.68 215.15 97.01 C 216.29 93.76 215.99 88.64 218.85 86.45 Z" fill="#b1371f" />
<path d="M 203.20 87.97 C 207.23 87.34 205.89 92.19 206.49 94.83 C 205.54 96.78 200.92 95.77 199.05 96.05 C 196.99 95.62 194.86 95.41 192.77 95.09 C 190.75 87.41 198.30 91.91 201.22 89.36 C 201.89 88.91 202.55 88.45 203.20 87.97 Z" fill="#b74b26" />
<path d="M 265.76 88.92 C 269.96 90.72 275.32 89.90 279.85 89.91 C 287.62 89.50 295.04 91.29 302.79 91.13 C 297.64 93.31 285.72 91.12 278.95 92.23 C 280.39 94.15 282.99 94.11 285.20 94.83 C 281.29 94.95 277.23 94.80 273.38 95.46 C 268.69 96.62 264.64 94.23 259.92 96.09 C 262.95 93.26 259.98 89.22 265.76 88.92 Z" fill="#b98884" />
<path d="M 165.07 91.03 C 170.41 91.21 174.45 94.83 180.22 94.59 C 173.39 96.36 165.69 96.66 158.77 95.30 C 161.73 95.08 164.69 95.03 167.66 94.94 C 166.76 93.65 165.83 92.40 165.07 91.03 Z" fill="#956f6f" />
<path d="M 25.05 93.11 C 37.79 94.29 52.11 96.35 64.68 93.87 C 68.89 94.69 73.07 94.36 77.22 95.79 C 62.41 96.50 48.99 96.23 36.14 96.51 C 28.92 96.23 20.44 99.04 13.68 96.98 C 16.41 92.98 20.52 95.10 25.05 93.11 Z" fill="#756b6f" />
<path d="M 85.29 93.92 C 86.12 97.60 86.98 101.29 87.78 104.98 C 85.23 104.99 82.92 104.76 80.51 105.73 C 79.86 110.19 81.44 115.19 81.37 119.81 C 81.12 125.95 80.19 122.83 76.11 122.06 C 77.33 123.72 78.71 125.25 79.90 126.93 C 76.20 127.31 72.77 126.28 69.13 126.06 C 68.80 128.40 71.49 127.89 73.02 128.69 C 68.84 129.47 66.91 127.74 66.24 132.94 C 72.75 133.36 83.61 129.42 83.16 139.87 C 81.69 143.81 81.93 147.76 81.97 151.88 C 74.29 150.66 67.58 155.36 60.36 153.60 C 58.35 153.02 60.15 152.28 60.58 151.13 C 52.55 149.77 44.23 150.45 36.16 149.73 C 30.15 147.87 21.31 146.12 16.16 150.69 C 18.73 151.44 20.19 150.22 19.44 153.55 C 12.49 157.81 7.34 153.87 0.00 152.89 L 0.00 134.98 C 5.14 134.76 9.68 133.70 14.67 134.47 C 16.44 137.26 15.27 136.50 13.03 137.87 C 20.03 138.24 26.32 138.44 33.03 136.09 C 42.48 135.33 51.62 141.58 61.13 142.68 C 60.22 139.21 51.21 140.93 51.04 136.44 C 57.15 135.80 62.85 136.65 68.89 136.82 C 72.70 135.24 70.04 134.97 67.63 134.36 C 52.69 135.58 36.62 135.39 22.03 131.96 C 14.70 131.75 7.26 133.03 0.00 133.96 L 0.00 96.89 C 4.56 97.05 9.12 97.01 13.68 96.98 C 20.44 99.04 28.92 96.23 36.14 96.51 C 48.99 96.23 62.41 96.50 77.22 95.79 C 79.39 95.64 85.30 97.32 85.29 93.92 Z" fill="#474543" />
<path d="M 118.96 94.09 C 126.23 97.42 133.63 96.28 141.04 94.10 C 145.15 94.67 149.00 95.33 153.19 94.81 C 155.06 94.95 156.92 95.10 158.77 95.30 C 165.69 96.66 173.39 96.36 180.22 94.59 C 181.89 94.67 183.56 94.74 185.22 94.99 C 186.40 99.59 187.07 104.07 189.80 108.10 C 190.76 111.12 192.91 112.75 195.12 114.80 C 193.07 113.79 182.98 114.66 189.83 112.49 C 185.98 107.94 185.31 113.70 181.10 110.52 C 188.17 108.26 179.05 106.29 176.24 106.83 C 176.93 104.76 183.24 107.53 184.10 104.04 C 175.36 98.52 169.68 104.50 160.83 100.29 C 158.00 100.34 153.18 99.65 153.05 103.77 C 158.39 102.91 163.25 104.75 168.59 103.28 C 168.39 104.89 169.51 106.37 166.99 105.86 C 161.95 106.17 155.00 103.94 151.31 107.90 C 147.35 104.86 142.77 106.27 138.00 105.99 C 123.49 105.81 108.77 106.39 94.31 105.72 C 93.31 102.70 92.95 99.57 91.72 96.61 C 98.16 94.09 110.70 96.23 118.96 94.09 Z" fill="#5e473e" />
<path d="M 192.77 95.09 C 194.86 95.41 196.99 95.62 199.05 96.05 C 202.98 97.83 208.01 96.66 212.28 97.27 C 206.01 99.22 201.09 95.89 196.36 101.61 C 201.42 105.18 209.00 103.86 215.00 105.24 C 215.02 107.42 215.09 109.60 215.28 111.78 C 215.18 113.68 215.09 115.60 214.87 117.49 C 207.00 115.92 199.91 114.22 193.09 109.81 L 192.24 108.74 C 188.90 105.31 183.58 92.89 192.77 95.09 Z" fill="#ed7749" />
<path d="M 273.38 95.46 C 277.23 94.80 281.29 94.95 285.20 94.83 C 297.00 95.30 308.18 96.00 320.00 95.07 L 320.00 97.92 C 318.63 101.90 313.94 101.51 310.56 103.19 C 311.52 105.21 312.22 104.84 309.68 105.63 C 301.41 105.56 292.10 105.37 284.14 107.61 C 277.29 105.87 271.32 109.54 264.36 108.35 C 261.80 108.37 259.52 107.09 257.98 109.81 C 262.59 110.42 267.78 109.24 272.16 110.77 C 270.42 110.87 268.70 111.02 266.98 111.24 C 268.76 114.33 274.82 112.42 277.92 113.19 C 278.05 115.27 276.47 115.34 274.89 115.87 C 269.04 115.16 263.19 114.63 257.32 113.98 C 257.49 114.60 257.67 115.21 257.87 115.81 C 256.36 117.75 248.34 116.35 250.84 119.03 C 249.18 118.56 247.49 118.17 245.80 117.82 C 247.71 115.76 250.32 114.12 251.76 111.71 C 253.23 109.19 255.31 107.25 257.17 105.04 C 259.71 102.33 259.45 99.47 259.92 96.09 C 264.64 94.23 268.69 96.62 273.38 95.46 Z" fill="#5c4339" />
<path d="M 234.28 99.23 C 234.24 103.55 231.52 105.11 228.04 106.79 C 225.96 105.90 223.97 104.78 221.96 103.73 C 220.72 101.21 219.82 99.69 220.60 96.79 C 225.02 96.08 230.77 95.99 234.28 99.23 Z" fill="#f8bd73" />
<path d="M 257.77 98.02 C 254.08 100.76 256.09 101.40 257.17 105.04 C 255.31 107.25 253.23 109.19 251.76 111.71 C 247.14 111.94 244.50 115.63 240.05 116.11 C 234.28 116.79 229.82 120.24 223.96 120.13 C 223.68 119.02 223.39 117.91 223.07 116.81 C 222.64 114.84 222.20 112.87 221.94 110.86 C 221.87 109.09 221.61 107.58 220.96 105.93 C 221.29 105.19 221.62 104.46 221.96 103.73 C 223.97 104.78 225.96 105.90 228.04 106.79 C 231.52 105.11 234.24 103.55 234.28 99.23 C 234.50 98.44 234.73 97.64 234.97 96.86 C 242.16 96.17 250.51 96.58 257.77 98.02 Z" fill="#ee7549" />
<path d="M 90.94 97.09 L 91.72 96.61 C 92.95 99.57 93.31 102.70 94.31 105.72 C 108.77 106.39 123.49 105.81 138.00 105.99 C 142.77 106.27 147.35 104.86 151.31 107.90 C 150.84 108.53 150.37 109.17 149.91 109.81 C 147.21 110.32 145.37 111.08 143.60 113.25 C 144.65 115.89 145.39 118.12 144.96 121.04 C 141.88 120.41 138.65 120.21 135.64 119.33 C 131.20 118.76 138.11 111.11 132.24 114.05 C 135.03 108.96 126.95 111.47 124.25 111.20 C 124.14 113.11 124.23 115.01 124.06 116.91 C 123.30 116.95 122.54 117.01 121.78 117.09 C 120.91 116.05 114.61 109.90 117.01 114.91 C 114.83 114.08 110.82 111.32 109.94 115.07 C 107.34 116.55 106.77 116.98 105.71 119.73 C 103.33 121.94 100.77 119.63 101.03 124.30 C 99.16 123.77 97.27 124.48 96.76 122.11 C 97.37 118.97 95.81 116.45 99.74 115.72 C 102.63 113.48 101.36 122.77 103.52 118.67 C 103.50 115.61 102.76 115.36 105.74 113.69 C 109.68 111.06 103.09 113.62 101.79 113.59 C 102.68 112.60 103.77 111.88 104.85 111.12 C 101.20 111.16 97.45 110.19 93.86 110.81 C 93.29 106.09 91.25 101.85 90.94 97.09 Z" fill="#cd8f73" />
<path d="M 212.28 97.27 L 214.23 96.86 L 215.15 97.01 C 217.42 98.68 213.92 102.39 215.00 105.24 C 209.00 103.86 201.42 105.18 196.36 101.61 C 201.09 95.89 206.01 99.22 212.28 97.27 Z" fill="#fb975f" />
<path d="M 320.00 97.92 L 320.00 126.95 C 314.55 131.06 301.31 134.51 295.95 129.20 C 302.69 129.05 308.20 129.83 314.93 128.69 C 311.68 125.97 305.89 123.84 301.89 125.91 C 293.14 130.71 282.91 127.57 273.89 125.36 C 271.90 125.79 265.89 125.40 265.18 126.90 C 275.58 126.59 285.70 130.88 296.03 132.09 C 301.02 132.18 294.23 134.37 293.03 134.57 C 294.63 135.31 296.26 135.42 297.99 135.53 C 296.04 137.33 287.06 140.50 291.58 135.03 C 284.12 135.57 277.43 133.67 270.40 131.55 C 262.69 129.00 258.44 136.16 250.15 133.88 C 253.16 126.99 257.25 128.07 263.74 127.87 C 263.92 126.25 257.46 127.31 256.00 126.78 C 264.82 119.54 271.89 125.73 281.62 122.52 C 285.48 121.30 289.17 120.71 293.21 120.52 C 291.99 121.88 290.52 122.82 289.08 123.93 C 296.12 125.23 300.48 120.56 307.00 120.07 C 307.75 119.74 311.19 120.43 310.79 119.11 C 308.09 118.58 302.92 120.04 301.21 117.56 C 303.53 116.60 303.70 116.72 303.57 114.28 C 299.53 112.91 295.47 113.23 291.33 112.67 C 288.87 110.98 291.81 111.14 293.00 110.05 C 285.28 109.46 280.07 114.33 272.16 110.77 C 267.78 109.24 262.59 110.42 257.98 109.81 C 259.52 107.09 261.80 108.37 264.36 108.35 C 271.32 109.54 277.29 105.87 284.14 107.61 C 292.10 105.37 301.41 105.56 309.68 105.63 C 312.22 104.84 311.52 105.21 310.56 103.19 C 313.94 101.51 318.63 101.90 320.00 97.92 Z" fill="#473f39" />
<path d="M 160.83 100.29 C 169.68 104.50 175.36 98.52 184.10 104.04 C 183.24 107.53 176.93 104.76 176.24 106.83 C 179.05 106.29 188.17 108.26 181.10 110.52 C 185.31 113.70 185.98 107.94 189.83 112.49 C 182.98 114.66 193.07 113.79 195.12 114.80 C 200.99 121.41 208.47 125.27 215.25 130.74 C 216.62 131.97 218.15 131.84 219.87 132.01 C 218.83 134.73 218.88 135.06 220.67 137.35 C 220.81 138.98 220.43 148.42 223.43 144.96 C 223.88 147.22 225.02 155.65 222.44 149.20 C 220.10 151.86 222.29 157.13 218.89 160.09 C 218.37 156.84 221.68 151.86 217.35 150.66 C 207.20 146.66 197.92 136.65 186.99 137.95 C 173.73 139.98 160.49 138.17 147.16 140.05 C 147.36 137.65 147.76 135.28 147.87 132.87 C 147.64 125.03 149.81 117.55 149.91 109.81 C 150.37 109.17 150.84 108.53 151.31 107.90 C 155.00 103.94 161.95 106.17 166.99 105.86 C 169.51 106.37 168.39 104.89 168.59 103.28 C 163.25 104.75 158.39 102.91 153.05 103.77 C 153.18 99.65 158.00 100.34 160.83 100.29 Z" fill="#594e48" />
<path d="M 217.89 101.09 C 218.23 104.96 215.48 106.46 220.96 105.93 C 221.61 107.58 221.87 109.09 221.94 110.86 C 220.51 114.28 221.22 113.49 218.22 112.11 C 218.43 113.61 218.71 115.10 218.94 116.59 C 218.23 117.32 217.53 118.07 216.86 118.84 L 216.37 119.39 C 216.15 116.83 215.87 114.28 215.28 111.78 C 215.09 109.60 215.02 107.42 215.00 105.24 C 215.86 103.73 215.62 100.92 217.89 101.09 Z" fill="#6a0b05" />
<path d="M 295.42 104.22 C 296.01 103.52 298.94 103.43 298.58 104.78 C 297.99 105.48 295.06 105.57 295.42 104.22 Z" fill="#4c4138" />
<path d="M 87.78 104.98 C 88.52 110.12 89.40 115.20 91.23 120.08 C 92.07 123.01 90.65 124.59 89.55 127.16 C 87.69 122.50 87.63 116.38 87.63 111.36 C 85.88 106.78 85.99 105.68 80.51 105.73 C 82.92 104.76 85.23 104.99 87.78 104.98 Z" fill="#896751" />
<path d="M 80.51 105.73 C 80.70 109.70 90.40 110.66 82.16 111.33 C 83.72 114.83 83.69 114.73 82.11 118.17 C 85.31 118.49 87.92 123.74 84.19 125.21 C 82.83 125.86 82.92 127.91 82.54 129.18 C 81.96 126.08 81.97 122.91 81.37 119.81 C 81.44 115.19 79.86 110.19 80.51 105.73 Z" fill="#9f785f" />
<path d="M 80.51 105.73 C 85.99 105.68 85.88 106.78 87.63 111.36 C 87.63 116.38 87.69 122.50 89.55 127.16 C 90.25 129.79 91.03 132.25 90.82 135.01 C 86.52 136.48 83.17 133.38 82.54 129.18 C 82.92 127.91 82.83 125.86 84.19 125.21 C 87.92 123.74 85.31 118.49 82.11 118.17 C 83.69 114.73 83.72 114.83 82.16 111.33 C 90.40 110.66 80.70 109.70 80.51 105.73 Z" fill="#ca997a" />
<path d="M 189.80 108.10 C 190.61 108.32 191.43 108.53 192.24 108.74 L 193.09 109.81 C 195.02 113.08 197.57 115.28 200.87 117.11 C 204.17 121.32 209.33 123.07 213.45 126.56 C 216.48 128.12 216.85 125.01 217.46 122.86 C 217.85 124.82 217.96 126.75 217.89 128.75 C 216.39 131.61 226.35 131.16 227.88 129.97 C 227.24 131.00 226.61 132.04 226.01 133.09 L 225.25 132.92 C 223.47 132.40 221.73 132.08 219.87 132.01 C 218.15 131.84 216.62 131.97 215.25 130.74 C 208.47 125.27 200.99 121.41 195.12 114.80 C 192.91 112.75 190.76 111.12 189.80 108.10 Z" fill="#7b3e2a" />
<path d="M 104.85 111.12 C 103.77 111.88 102.68 112.60 101.79 113.59 C 103.09 113.62 109.68 111.06 105.74 113.69 C 102.76 115.36 103.50 115.61 103.52 118.67 C 101.36 122.77 102.63 113.48 99.74 115.72 C 95.81 116.45 97.37 118.97 96.76 122.11 C 93.47 124.11 92.50 125.35 93.92 120.53 C 99.25 121.22 90.97 116.91 94.93 114.44 C 90.25 115.63 93.36 113.38 93.86 110.81 C 97.45 110.19 101.20 111.16 104.85 111.12 Z" fill="#ac6c54" />
<path d="M 149.91 109.81 C 149.81 117.55 147.64 125.03 147.87 132.87 C 146.43 137.34 143.83 139.53 139.78 141.53 C 135.72 141.55 129.70 135.16 125.91 138.09 C 119.76 136.76 114.42 135.82 108.19 137.89 C 103.54 140.55 101.09 137.63 96.92 136.01 C 96.50 135.07 96.14 134.10 95.85 133.11 L 96.80 133.05 C 101.70 136.54 106.00 136.15 111.65 135.51 C 119.39 135.55 127.85 135.13 135.34 136.25 C 138.48 135.27 141.47 133.77 144.56 132.61 C 143.51 129.61 139.76 127.88 144.83 126.42 C 140.39 123.01 135.96 127.32 131.99 124.39 C 134.61 122.69 145.58 124.39 144.96 121.04 C 145.39 118.12 144.65 115.89 143.60 113.25 C 145.37 111.08 147.21 110.32 149.91 109.81 Z" fill="#ab8462" />
<path d="M 193.09 109.81 C 199.91 114.22 207.00 115.92 214.87 117.49 C 215.09 115.60 215.18 113.68 215.28 111.78 C 215.87 114.28 216.15 116.83 216.37 119.39 C 214.11 123.38 204.51 117.54 200.87 117.11 C 197.57 115.28 195.02 113.08 193.09 109.81 Z" fill="#d25c38" />
<path d="M 293.00 110.05 C 291.81 111.14 288.87 110.98 291.33 112.67 C 295.47 113.23 299.53 112.91 303.57 114.28 C 303.70 116.72 303.53 116.60 301.21 117.56 C 302.92 120.04 308.09 118.58 310.79 119.11 C 311.19 120.43 307.75 119.74 307.00 120.07 C 300.48 120.56 296.12 125.23 289.08 123.93 C 290.52 122.82 291.99 121.88 293.21 120.52 C 289.17 120.71 285.48 121.30 281.62 122.52 C 271.89 125.73 264.82 119.54 256.00 126.78 C 257.46 127.31 263.92 126.25 263.74 127.87 C 257.25 128.07 253.16 126.99 250.15 133.88 C 258.44 136.16 262.69 129.00 270.40 131.55 C 277.43 133.67 284.12 135.57 291.58 135.03 C 287.06 140.50 296.04 137.33 297.99 135.53 C 296.26 135.42 294.63 135.31 293.03 134.57 C 294.23 134.37 301.02 132.18 296.03 132.09 C 285.70 130.88 275.58 126.59 265.18 126.90 C 265.89 125.40 271.90 125.79 273.89 125.36 C 282.91 127.57 293.14 130.71 301.89 125.91 C 305.89 123.84 311.68 125.97 314.93 128.69 C 308.20 129.83 302.69 129.05 295.95 129.20 C 301.31 134.51 314.55 131.06 320.00 126.95 L 320.00 134.12 C 317.10 133.19 310.89 131.53 308.98 134.73 C 309.85 135.14 315.69 134.56 314.53 135.73 C 300.89 137.77 286.78 140.48 272.97 139.78 C 275.08 138.92 277.62 138.52 279.28 136.99 C 273.87 134.26 265.54 131.81 259.84 134.72 C 252.64 135.88 246.63 133.02 240.43 138.44 C 238.24 139.03 245.00 141.30 242.03 140.99 C 236.12 142.17 230.29 137.37 225.01 138.84 L 224.97 137.14 L 226.00 135.81 C 234.13 138.51 239.74 136.53 245.09 130.11 C 245.74 129.00 253.12 128.24 248.03 127.99 C 245.60 126.96 237.33 130.62 238.05 126.12 C 243.27 125.81 246.94 128.52 251.95 125.33 C 250.74 125.35 240.22 122.76 245.97 122.04 C 249.34 122.37 245.99 119.36 245.80 117.82 C 247.49 118.17 249.18 118.56 250.84 119.03 C 257.44 123.76 264.23 121.49 272.01 122.04 C 273.30 122.58 282.09 120.90 277.88 119.14 C 271.22 116.31 264.85 117.48 257.87 115.81 C 257.67 115.21 257.49 114.60 257.32 113.98 C 263.19 114.63 269.04 115.16 274.89 115.87 C 276.47 115.34 278.05 115.27 277.92 113.19 C 274.82 112.42 268.76 114.33 266.98 111.24 C 268.70 111.02 270.42 110.87 272.16 110.77 C 280.07 114.33 285.28 109.46 293.00 110.05 Z" fill="#5a504a" />
<path d="M 124.25 111.20 C 126.95 111.47 135.03 108.96 132.24 114.05 C 130.63 115.64 127.53 115.40 129.55 118.06 C 127.33 119.67 125.36 119.42 124.06 116.91 C 124.23 115.01 124.14 113.11 124.25 111.20 Z" fill="#ae6f55" />
<path d="M 221.94 110.86 C 222.20 112.87 222.64 114.84 223.07 116.81 C 221.70 116.71 220.32 116.63 218.94 116.59 C 218.71 115.10 218.43 113.61 218.22 112.11 C 221.22 113.49 220.51 114.28 221.94 110.86 Z" fill="#9c3024" />
<path d="M 251.76 111.71 C 250.32 114.12 247.71 115.76 245.80 117.82 C 239.65 121.57 233.74 125.79 227.88 129.97 C 226.35 131.16 216.39 131.61 217.89 128.75 C 220.59 128.98 223.25 129.14 225.95 128.82 C 225.65 125.82 224.06 123.21 223.96 120.13 C 229.82 120.24 234.28 116.79 240.05 116.11 C 244.50 115.63 247.14 111.94 251.76 111.71 Z" fill="#ae4126" />
<path d="M 117.01 114.91 C 117.25 119.03 118.39 121.06 121.78 117.09 C 122.54 117.01 123.30 116.95 124.06 116.91 C 125.36 119.42 127.33 119.67 129.55 118.06 C 127.53 115.40 130.63 115.64 132.24 114.05 C 138.11 111.11 131.20 118.76 135.64 119.33 C 138.65 120.21 141.88 120.41 144.96 121.04 C 145.58 124.39 134.61 122.69 131.99 124.39 C 135.96 127.32 140.39 123.01 144.83 126.42 C 139.76 127.88 143.51 129.61 144.56 132.61 C 141.47 133.77 138.48 135.27 135.34 136.25 C 127.85 135.13 119.39 135.55 111.65 135.51 C 106.00 136.15 101.70 136.54 96.80 133.05 C 96.37 130.75 95.87 128.57 96.11 126.20 C 100.46 125.65 104.76 125.98 109.08 126.61 C 110.48 126.94 110.91 125.27 110.94 124.20 C 107.63 123.80 104.34 123.92 101.03 124.30 C 100.77 119.63 103.33 121.94 105.71 119.73 C 106.77 116.98 107.34 116.55 109.94 115.07 C 110.82 111.32 114.83 114.08 117.01 114.91 Z" fill="#e1a686" />
<path d="M 121.78 117.09 C 118.39 121.06 117.25 119.03 117.01 114.91 C 114.61 109.90 120.91 116.05 121.78 117.09 Z" fill="#aa694e" />
<path d="M 223.07 116.81 C 223.39 117.91 223.68 119.02 223.96 120.13 C 224.06 123.21 225.65 125.82 225.95 128.82 C 223.25 129.14 220.59 128.98 217.89 128.75 C 217.96 126.75 217.85 124.82 217.46 122.86 C 217.25 121.52 217.04 120.18 216.86 118.84 C 217.53 118.07 218.23 117.32 218.94 116.59 C 220.32 116.63 221.70 116.71 223.07 116.81 Z" fill="#3e0a04" />
<path d="M 257.87 115.81 C 264.85 117.48 271.22 116.31 277.88 119.14 C 282.09 120.90 273.30 122.58 272.01 122.04 C 264.23 121.49 257.44 123.76 250.84 119.03 C 248.34 116.35 256.36 117.75 257.87 115.81 Z" fill="#433731" />
<path d="M 200.87 117.11 C 204.51 117.54 214.11 123.38 216.37 119.39 L 216.86 118.84 C 217.04 120.18 217.25 121.52 217.46 122.86 C 216.85 125.01 216.48 128.12 213.45 126.56 C 209.33 123.07 204.17 121.32 200.87 117.11 Z" fill="#a9391b" />
<path d="M 245.80 117.82 C 245.99 119.36 249.34 122.37 245.97 122.04 C 240.22 122.76 250.74 125.35 251.95 125.33 C 246.94 128.52 243.27 125.81 238.05 126.12 C 237.33 130.62 245.60 126.96 248.03 127.99 C 253.12 128.24 245.74 129.00 245.09 130.11 C 239.74 136.53 234.13 138.51 226.00 135.81 C 226.00 134.90 226.00 133.99 226.01 133.09 C 226.61 132.04 227.24 131.00 227.88 129.97 C 233.74 125.79 239.65 121.57 245.80 117.82 Z" fill="#4e3c36" />
<path d="M 81.37 119.81 C 81.97 122.91 81.96 126.08 82.54 129.18 C 83.17 133.38 86.52 136.48 90.82 135.01 C 91.45 141.15 87.38 139.33 83.16 139.87 C 83.61 129.42 72.75 133.36 66.24 132.94 C 66.91 127.74 68.84 129.47 73.02 128.69 C 71.49 127.89 68.80 128.40 69.13 126.06 C 72.77 126.28 76.20 127.31 79.90 126.93 C 78.71 125.25 77.33 123.72 76.11 122.06 C 80.19 122.83 81.12 125.95 81.37 119.81 Z" fill="#695b48" />
<path d="M 91.23 120.08 C 92.12 120.26 93.01 120.41 93.92 120.53 C 92.50 125.35 93.47 124.11 96.76 122.11 C 97.27 124.48 99.16 123.77 101.03 124.30 C 99.10 124.68 97.15 124.96 95.22 125.37 C 94.69 127.98 94.94 130.61 95.85 133.11 C 96.14 134.10 96.50 135.07 96.92 136.01 C 98.00 140.16 100.86 140.65 104.25 142.44 C 103.73 144.62 100.51 142.10 99.07 142.11 C 99.90 144.41 101.05 146.52 101.79 148.87 C 98.65 151.63 90.51 151.06 90.69 156.00 C 89.53 154.59 90.16 150.71 87.72 153.07 C 87.24 150.69 86.19 144.26 83.11 144.08 C 82.09 147.45 85.18 150.29 84.16 153.28 C 83.43 152.81 82.70 152.35 81.97 151.88 C 81.93 147.76 81.69 143.81 83.16 139.87 C 87.38 139.33 91.45 141.15 90.82 135.01 C 91.03 132.25 90.25 129.79 89.55 127.16 C 90.65 124.59 92.07 123.01 91.23 120.08 Z" fill="#51421b" />
<path d="M 201.66 122.94 C 197.39 129.27 204.10 127.69 207.10 131.94 C 204.76 131.96 202.42 132.05 200.08 132.17 C 193.90 131.35 188.76 128.90 182.34 130.40 C 180.66 130.79 174.64 129.65 177.47 127.23 C 172.04 125.78 167.69 124.17 161.98 125.71 C 167.84 120.07 180.84 129.39 188.37 127.52 C 193.57 127.43 196.93 124.32 201.66 122.94 Z" fill="#715f57" />
<path d="M 101.03 124.30 C 104.34 123.92 107.63 123.80 110.94 124.20 C 110.91 125.27 110.48 126.94 109.08 126.61 C 104.76 125.98 100.46 125.65 96.11 126.20 C 95.87 128.57 96.37 130.75 96.80 133.05 L 95.85 133.11 C 94.94 130.61 94.69 127.98 95.22 125.37 C 97.15 124.96 99.10 124.68 101.03 124.30 Z" fill="#bf8463" />
<path d="M 114.34 124.29 C 118.17 123.68 122.21 123.90 126.06 124.26 C 121.87 126.20 117.50 126.26 112.98 125.82 C 113.40 125.28 113.86 124.77 114.34 124.29 Z" fill="#b47e5b" />
<path d="M 52.01 126.99 C 53.30 127.38 56.14 126.37 55.95 128.41 C 47.52 129.26 39.63 126.62 30.96 128.26 C 34.96 131.21 40.12 130.98 43.96 132.94 C 37.84 133.31 26.24 130.38 20.98 127.24 C 31.57 126.52 41.37 125.05 52.01 126.99 Z" fill="#5d5955" />
<path d="M 22.03 131.96 C 36.62 135.39 52.69 135.58 67.63 134.36 C 70.04 134.97 72.70 135.24 68.89 136.82 C 62.85 136.65 57.15 135.80 51.04 136.44 C 51.21 140.93 60.22 139.21 61.13 142.68 C 51.62 141.58 42.48 135.33 33.03 136.09 C 26.32 138.44 20.03 138.24 13.03 137.87 C 15.27 136.50 16.44 137.26 14.67 134.47 C 9.68 133.70 5.14 134.76 0.00 134.98 L 0.00 133.96 C 7.26 133.03 14.70 131.75 22.03 131.96 Z" fill="#5e5b57" />
<path d="M 200.08 132.17 C 202.42 132.05 204.76 131.96 207.10 131.94 C 210.30 133.28 214.34 133.00 217.27 134.74 C 219.46 136.50 215.73 138.88 214.03 139.07 C 208.43 140.90 204.89 140.69 199.37 138.62 C 192.84 135.79 186.98 137.59 180.16 136.82 L 180.19 135.22 C 186.01 134.63 191.79 134.47 197.58 135.50 C 197.58 132.92 197.84 133.22 200.08 132.17 Z" fill="#443a33" />
<path d="M 219.87 132.01 C 221.73 132.08 223.47 132.40 225.25 132.92 C 224.99 136.43 223.44 136.15 220.67 137.35 C 218.88 135.06 218.83 134.73 219.87 132.01 Z" fill="#e7c5b6" />
<path d="M 147.87 132.87 C 147.76 135.28 147.36 137.65 147.16 140.05 C 146.96 142.31 146.88 144.58 146.69 146.84 C 146.44 147.61 146.19 148.38 145.94 149.15 C 144.73 147.26 141.20 141.07 140.59 146.77 C 136.19 142.12 131.81 140.24 125.91 138.09 C 129.70 135.16 135.72 141.55 139.78 141.53 C 143.83 139.53 146.43 137.34 147.87 132.87 Z" fill="#776e32" />
<path d="M 225.25 132.92 L 226.01 133.09 C 226.00 133.99 226.00 134.90 226.00 135.81 L 224.97 137.14 C 223.00 139.55 222.80 141.98 223.43 144.96 C 220.43 148.42 220.81 138.98 220.67 137.35 C 223.44 136.15 224.99 136.43 225.25 132.92 Z" fill="#ac7e69" />
<path d="M 279.28 136.99 C 277.62 138.52 275.08 138.92 272.97 139.78 C 286.78 140.48 300.89 137.77 314.53 135.73 C 315.69 134.56 309.85 135.14 308.98 134.73 C 310.89 131.53 317.10 133.19 320.00 134.12 L 320.00 146.98 C 317.24 149.02 314.98 151.80 311.18 150.71 C 305.22 148.83 300.95 153.42 295.26 152.45 C 284.03 149.62 273.06 150.43 261.82 152.72 C 258.21 153.49 254.82 154.41 251.97 156.89 C 257.16 157.28 262.07 154.74 267.34 154.25 C 272.61 153.19 276.22 156.55 281.15 153.29 C 285.77 154.71 289.90 153.91 294.35 154.75 C 285.13 158.63 274.11 156.34 264.17 158.12 C 251.31 158.64 239.50 162.24 226.40 161.06 C 223.22 158.98 224.24 158.10 224.76 154.86 C 226.70 153.09 230.76 154.47 233.22 154.46 C 231.53 152.13 226.70 152.10 225.73 149.40 C 225.81 145.78 225.44 142.42 225.01 138.84 C 230.29 137.37 236.12 142.17 242.03 140.99 C 245.00 141.30 238.24 139.03 240.43 138.44 C 246.63 133.02 252.64 135.88 259.84 134.72 C 265.54 131.81 273.87 134.26 279.28 136.99 Z" fill="#413d39" />
<path d="M 96.92 136.01 C 101.09 137.63 103.54 140.55 108.19 137.89 C 107.16 139.67 105.69 141.00 104.25 142.44 C 100.86 140.65 98.00 140.16 96.92 136.01 Z" fill="#756435" />
<path d="M 125.91 138.09 C 121.44 140.72 117.73 139.09 112.95 138.95 C 111.38 138.44 109.83 138.09 108.19 137.89 C 114.42 135.82 119.76 136.76 125.91 138.09 Z" fill="#7b6930" />
<path d="M 224.97 137.14 L 225.01 138.84 C 225.44 142.42 225.81 145.78 225.73 149.40 C 226.70 152.10 231.53 152.13 233.22 154.46 C 230.76 154.47 226.70 153.09 224.76 154.86 C 222.89 156.21 223.16 157.81 222.90 159.88 C 222.30 159.68 221.71 159.50 221.11 159.32 C 221.53 163.85 219.31 171.90 222.87 175.17 C 223.30 176.05 223.72 176.93 224.12 177.81 C 223.09 178.24 222.06 178.66 221.02 179.08 C 217.71 175.59 220.23 166.86 220.00 162.34 C 214.71 165.47 211.64 164.23 206.12 162.85 C 196.82 163.88 187.06 158.78 177.65 158.95 C 171.14 158.11 164.34 159.49 157.77 159.22 C 151.84 157.24 149.10 157.71 143.84 160.91 C 142.26 157.67 145.00 157.06 144.56 154.08 C 144.91 153.66 145.27 153.24 145.64 152.82 C 146.12 156.02 148.56 154.70 150.86 154.74 C 154.56 154.10 158.28 156.40 162.29 155.17 C 165.71 153.64 167.33 156.37 170.70 154.08 C 166.90 159.39 173.15 156.06 176.13 156.47 C 179.43 156.57 182.58 157.36 185.91 156.86 C 186.35 154.37 181.72 154.56 180.12 153.61 C 181.26 151.85 182.93 151.29 184.76 150.48 C 179.58 147.03 172.55 144.86 166.37 146.42 C 163.32 147.02 160.93 148.39 157.80 147.32 C 170.23 142.90 180.66 144.93 192.02 150.95 C 200.57 154.87 209.65 158.24 218.89 160.09 C 222.29 157.13 220.10 151.86 222.44 149.20 C 225.02 155.65 223.88 147.22 223.43 144.96 C 222.80 141.98 223.00 139.55 224.97 137.14 Z" fill="#685950" />
<path d="M 108.19 137.89 C 109.83 138.09 111.38 138.44 112.95 138.95 C 116.83 141.16 120.54 143.13 125.11 141.76 C 134.16 139.49 139.42 150.63 139.19 158.13 C 137.75 161.94 135.47 165.28 133.87 169.01 L 132.88 168.88 C 133.31 163.19 138.24 161.46 137.00 155.32 C 132.66 158.95 126.27 152.26 124.66 148.31 C 122.42 145.88 113.00 140.30 112.55 146.59 C 107.57 143.20 104.32 144.32 102.97 150.33 C 107.19 149.73 110.49 154.28 113.03 157.10 C 112.91 162.36 106.96 158.83 104.17 158.35 C 104.04 159.75 103.99 161.16 103.89 162.57 C 101.46 160.26 101.52 163.57 100.30 165.22 C 99.83 169.00 100.41 171.94 97.79 175.08 C 94.08 171.54 98.13 160.65 92.35 159.63 C 91.79 158.42 91.22 157.21 90.69 156.00 C 90.51 151.06 98.65 151.63 101.79 148.87 C 101.05 146.52 99.90 144.41 99.07 142.11 C 100.51 142.10 103.73 144.62 104.25 142.44 C 105.69 141.00 107.16 139.67 108.19 137.89 Z" fill="#3b3c07" />
<path d="M 125.91 138.09 C 131.81 140.24 136.19 142.12 140.59 146.77 C 141.20 141.07 144.73 147.26 145.94 149.15 C 145.85 150.37 145.75 151.59 145.64 152.82 C 145.27 153.24 144.91 153.66 144.56 154.08 C 142.16 155.85 140.20 154.69 139.19 158.13 C 139.42 150.63 134.16 139.49 125.11 141.76 C 120.54 143.13 116.83 141.16 112.95 138.95 C 117.73 139.09 121.44 140.72 125.91 138.09 Z" fill="#585213" />
<path d="M 186.99 137.95 C 197.92 136.65 207.20 146.66 217.35 150.66 C 221.68 151.86 218.37 156.84 218.89 160.09 C 209.65 158.24 200.57 154.87 192.02 150.95 C 180.66 144.93 170.23 142.90 157.80 147.32 C 154.63 146.98 145.67 152.94 146.69 146.84 C 146.88 144.58 146.96 142.31 147.16 140.05 C 160.49 138.17 173.73 139.98 186.99 137.95 Z" fill="#3e3834" />
<path d="M 124.66 148.31 C 126.27 152.26 132.66 158.95 137.00 155.32 C 138.24 161.46 133.31 163.19 132.88 168.88 C 131.59 172.47 131.09 176.30 128.24 178.96 C 127.76 176.28 125.60 175.95 124.93 178.75 C 123.68 180.33 122.34 181.79 120.84 183.14 C 120.12 183.77 119.43 184.43 118.76 185.11 C 116.52 187.11 115.68 189.84 112.12 188.96 C 109.78 187.78 108.10 185.33 105.93 183.83 C 104.38 185.51 104.11 188.21 103.05 190.24 C 100.94 187.57 97.03 183.13 99.63 179.70 C 100.65 177.93 99.11 177.18 98.26 175.83 L 97.79 175.08 C 100.41 171.94 99.83 169.00 100.30 165.22 C 101.52 163.57 101.46 160.26 103.89 162.57 C 103.99 161.16 104.04 159.75 104.17 158.35 C 106.96 158.83 112.91 162.36 113.03 157.10 C 110.49 154.28 107.19 149.73 102.97 150.33 C 104.32 144.32 107.57 143.20 112.55 146.59 C 113.00 140.30 122.42 145.88 124.66 148.31 Z" fill="#242a02" />
<path d="M 83.11 144.08 C 86.19 144.26 87.24 150.69 87.72 153.07 C 87.88 155.44 86.80 154.31 85.20 154.59 C 85.43 156.06 85.78 157.51 86.07 158.97 L 85.16 159.04 C 84.25 156.90 83.07 155.65 84.16 153.28 C 85.18 150.29 82.09 147.45 83.11 144.08 Z" fill="#856347" />
<path d="M 166.37 146.42 C 172.55 144.86 179.58 147.03 184.76 150.48 C 182.93 151.29 181.26 151.85 180.12 153.61 C 181.72 154.56 186.35 154.37 185.91 156.86 C 182.58 157.36 179.43 156.57 176.13 156.47 C 173.15 156.06 166.90 159.39 170.70 154.08 C 167.33 156.37 165.71 153.64 162.29 155.17 C 158.28 156.40 154.56 154.10 150.86 154.74 C 148.56 154.70 146.12 156.02 145.64 152.82 C 145.75 151.59 145.85 150.37 145.94 149.15 C 146.19 148.38 146.44 147.61 146.69 146.84 C 145.67 152.94 154.63 146.98 157.80 147.32 C 160.93 148.39 163.32 147.02 166.37 146.42 Z" fill="#514b46" />
<path d="M 320.00 146.98 L 320.00 157.28 C 315.67 149.84 312.46 156.88 306.31 153.84 C 303.89 153.03 301.67 153.47 299.26 154.08 C 305.40 160.61 311.47 164.45 320.00 167.44 L 320.00 168.96 C 309.69 166.40 298.49 165.39 287.93 166.55 C 286.60 168.00 283.78 168.35 287.23 169.41 C 297.95 176.18 307.96 171.09 320.00 170.93 L 320.00 173.73 C 317.39 174.38 318.64 175.82 318.36 177.81 C 313.84 181.42 308.26 179.92 303.48 183.48 C 299.55 185.60 294.57 185.46 290.35 187.30 C 283.03 187.85 275.24 185.91 267.79 187.63 C 259.31 188.06 254.05 182.80 244.93 185.50 C 239.00 184.46 233.05 183.69 227.11 182.78 C 221.67 182.34 230.47 174.95 224.12 177.81 C 223.72 176.93 223.30 176.05 222.87 175.17 C 223.27 170.02 222.16 165.03 222.90 159.88 C 223.16 157.81 222.89 156.21 224.76 154.86 C 224.24 158.10 223.22 158.98 226.40 161.06 C 225.02 165.55 225.57 163.75 229.24 162.87 C 233.42 164.44 237.36 164.34 241.72 164.85 C 240.12 168.74 246.03 167.38 248.20 167.67 C 251.77 168.31 253.31 166.61 256.34 165.34 C 259.42 165.10 262.92 166.17 265.83 167.20 C 263.63 170.23 256.39 168.47 252.95 169.24 C 256.04 171.95 261.30 170.71 265.23 171.35 C 259.59 172.21 253.69 172.87 248.01 172.10 C 246.32 172.37 244.63 171.05 245.21 173.67 C 254.29 173.94 260.16 180.65 268.95 178.67 C 272.25 179.27 275.76 182.28 274.60 176.42 C 278.24 177.16 283.17 173.68 281.91 170.03 C 279.24 165.75 284.45 164.37 287.76 164.47 C 293.59 161.14 301.39 165.29 308.01 163.83 C 303.55 161.73 299.06 159.69 294.55 157.68 C 294.72 156.37 296.60 154.99 294.35 154.75 C 289.90 153.91 285.77 154.71 281.15 153.29 C 276.22 156.55 272.61 153.19 267.34 154.25 C 262.07 154.74 257.16 157.28 251.97 156.89 C 254.82 154.41 258.21 153.49 261.82 152.72 C 273.06 150.43 284.03 149.62 295.26 152.45 C 300.95 153.42 305.22 148.83 311.18 150.71 C 314.98 151.80 317.24 149.02 320.00 146.98 Z" fill="#55504a" />
<path d="M 36.16 149.73 C 44.23 150.45 52.55 149.77 60.58 151.13 C 60.15 152.28 58.35 153.02 60.36 153.60 C 67.58 155.36 74.29 150.66 81.97 151.88 C 82.70 152.35 83.43 152.81 84.16 153.28 C 83.07 155.65 84.25 156.90 85.16 159.04 C 79.65 159.50 74.38 162.35 68.92 161.81 C 73.47 159.55 75.62 159.77 76.95 154.14 C 70.43 153.92 63.88 155.51 57.27 155.40 C 52.54 155.68 40.71 154.17 39.17 159.99 C 39.07 166.96 49.95 162.23 53.98 163.03 C 50.30 165.48 42.68 164.72 38.20 165.38 C 28.11 167.45 19.15 162.87 8.99 163.94 C 5.95 163.86 2.88 162.70 0.00 161.80 L 0.00 152.89 C 7.34 153.87 12.49 157.81 19.44 153.55 C 20.19 150.22 18.73 151.44 16.16 150.69 C 21.31 146.12 30.15 147.87 36.16 149.73 Z" fill="#5a5551" />
<path d="M 90.69 156.00 C 91.22 157.21 91.79 158.42 92.35 159.63 C 95.09 166.12 93.61 172.01 94.07 178.84 C 96.03 177.12 95.62 175.17 97.93 177.92 C 97.11 181.77 94.74 184.02 97.14 187.98 C 96.73 190.82 97.91 192.99 94.37 193.70 C 93.62 191.74 92.94 189.75 92.20 187.79 C 91.65 184.82 91.04 181.89 90.81 178.87 C 90.53 177.18 92.39 169.80 89.14 171.15 C 88.98 174.18 89.27 177.25 89.71 180.25 L 89.75 180.98 C 89.21 181.37 88.67 181.76 88.12 182.15 C 88.09 177.70 88.01 173.40 86.97 169.05 C 87.08 165.62 87.02 162.30 86.07 158.97 C 85.78 157.51 85.43 156.06 85.20 154.59 C 86.80 154.31 87.88 155.44 87.72 153.07 C 90.16 150.71 89.53 154.59 90.69 156.00 Z" fill="#d29e79" />
<path d="M 306.31 153.84 C 312.46 156.88 315.67 149.84 320.00 157.28 L 320.00 167.44 C 311.47 164.45 305.40 160.61 299.26 154.08 C 301.67 153.47 303.89 153.03 306.31 153.84 Z" fill="#403f3b" />
<path d="M 76.95 154.14 C 75.62 159.77 73.47 159.55 68.92 161.81 C 74.38 162.35 79.65 159.50 85.16 159.04 L 86.07 158.97 C 87.02 162.30 87.08 165.62 86.97 169.05 C 80.41 168.59 73.17 169.34 66.84 167.49 C 69.01 173.05 74.47 171.99 79.67 173.46 C 81.58 174.02 88.47 171.81 86.89 175.65 C 84.05 177.73 84.42 182.49 80.95 182.84 C 79.11 183.29 79.73 181.88 79.10 180.71 C 74.02 179.94 68.94 181.03 64.02 180.95 C 60.83 179.98 58.56 178.91 55.10 179.34 C 51.84 178.00 49.04 177.08 45.48 177.72 C 46.24 171.05 50.66 172.32 55.16 168.99 C 53.55 164.74 50.75 171.42 50.27 167.23 C 41.37 166.83 27.53 166.11 21.13 173.28 C 17.96 175.24 14.42 174.51 13.68 178.80 C 12.38 181.10 12.70 179.80 12.41 178.15 C 8.58 181.12 4.69 179.44 0.00 180.61 L 0.00 161.80 C 2.88 162.70 5.95 163.86 8.99 163.94 C 19.15 162.87 28.11 167.45 38.20 165.38 C 42.68 164.72 50.30 165.48 53.98 163.03 C 49.95 162.23 39.07 166.96 39.17 159.99 C 40.71 154.17 52.54 155.68 57.27 155.40 C 63.88 155.51 70.43 153.92 76.95 154.14 Z" fill="#3e3d39" />
<path d="M 144.56 154.08 C 145.00 157.06 142.26 157.67 143.84 160.91 C 142.49 161.52 141.45 161.39 141.20 163.14 C 138.75 172.76 139.92 186.80 134.40 194.99 C 134.20 189.09 131.47 185.83 129.00 181.08 C 132.54 176.41 135.07 175.82 133.87 169.01 C 135.47 165.28 137.75 161.94 139.19 158.13 C 140.20 154.69 142.16 155.85 144.56 154.08 Z" fill="#cca37b" />
<path d="M 294.35 154.75 C 296.60 154.99 294.72 156.37 294.55 157.68 C 299.06 159.69 303.55 161.73 308.01 163.83 C 301.39 165.29 293.59 161.14 287.76 164.47 C 284.45 164.37 279.24 165.75 281.91 170.03 C 276.23 169.60 270.80 170.43 265.23 171.35 C 261.30 170.71 256.04 171.95 252.95 169.24 C 256.39 168.47 263.63 170.23 265.83 167.20 C 262.92 166.17 259.42 165.10 256.34 165.34 C 253.31 166.61 251.77 168.31 248.20 167.67 C 246.03 167.38 240.12 168.74 241.72 164.85 C 254.52 163.42 267.29 164.55 280.05 162.64 C 274.15 159.45 265.52 161.79 258.95 160.76 C 260.37 159.10 262.22 158.84 264.17 158.12 C 274.11 156.34 285.13 158.63 294.35 154.75 Z" fill="#685a52" />
<path d="M 157.77 159.22 C 165.12 163.14 175.63 159.67 183.59 162.26 C 183.01 164.40 182.86 166.77 181.94 168.78 C 179.80 168.63 175.78 165.41 174.14 167.11 C 176.20 171.29 180.67 168.58 182.27 171.89 C 169.99 172.01 157.95 171.71 145.76 173.60 C 144.76 173.10 143.10 176.07 144.64 175.48 C 154.75 174.69 164.04 176.21 173.11 180.88 C 176.02 182.31 177.96 181.92 180.92 180.98 C 187.42 181.36 193.57 182.63 200.15 181.80 L 201.63 182.27 C 203.51 184.65 210.85 182.18 214.02 183.01 C 218.20 183.09 218.93 182.53 221.02 179.08 C 222.06 178.66 223.09 178.24 224.12 177.81 C 230.47 174.95 221.67 182.34 227.11 182.78 C 233.05 183.69 239.00 184.46 244.93 185.50 C 251.33 186.54 257.51 188.29 263.39 191.06 C 261.84 193.36 253.41 193.85 254.42 197.78 C 251.78 195.76 250.59 198.66 247.62 198.40 C 241.53 198.21 236.50 200.15 230.72 197.05 C 233.73 194.23 228.73 188.02 228.10 193.29 C 225.84 194.64 221.51 193.80 218.83 194.06 L 217.81 194.02 C 216.31 192.31 217.50 188.07 214.52 191.96 C 211.27 193.12 207.94 194.01 204.68 195.15 C 203.37 195.52 202.08 195.93 200.78 196.33 C 197.28 195.96 192.78 196.20 189.74 194.23 C 186.40 192.08 190.96 188.75 186.96 186.60 C 184.96 187.46 182.97 186.77 183.36 189.61 C 181.34 188.76 170.11 191.97 175.69 194.25 C 176.27 197.37 177.25 196.66 179.89 197.37 C 174.93 198.51 171.68 202.25 167.01 203.87 C 163.74 200.92 153.11 196.72 151.51 203.03 C 146.32 201.37 141.19 201.41 135.82 200.94 C 135.76 199.95 135.73 198.96 135.73 197.97 C 140.02 192.35 139.73 186.83 140.22 180.14 C 144.78 174.67 142.32 168.07 143.84 160.91 C 149.10 157.71 151.84 157.24 157.77 159.22 Z" fill="#423a31" />
<path d="M 177.65 158.95 C 187.06 158.78 196.82 163.88 206.12 162.85 C 211.64 164.23 214.71 165.47 220.00 162.34 C 220.23 166.86 217.71 175.59 221.02 179.08 C 218.93 182.53 218.20 183.09 214.02 183.01 C 210.85 182.18 203.51 184.65 201.63 182.27 C 203.01 181.71 204.40 181.18 205.77 180.59 C 205.06 178.73 203.45 178.46 202.06 177.23 C 205.63 175.32 208.55 178.62 212.12 177.19 C 214.24 176.54 216.17 175.51 217.99 174.25 C 213.07 172.09 203.29 178.08 200.75 171.97 C 201.69 174.94 193.77 174.90 194.22 172.21 C 190.01 172.83 186.37 173.72 182.27 171.89 C 180.67 168.58 176.20 171.29 174.14 167.11 C 175.78 165.41 179.80 168.63 181.94 168.78 C 182.86 166.77 183.01 164.40 183.59 162.26 C 175.63 159.67 165.12 163.14 157.77 159.22 C 164.34 159.49 171.14 158.11 177.65 158.95 Z" fill="#4f4942" />
<path d="M 264.17 158.12 C 262.22 158.84 260.37 159.10 258.95 160.76 C 265.52 161.79 274.15 159.45 280.05 162.64 C 267.29 164.55 254.52 163.42 241.72 164.85 C 237.36 164.34 233.42 164.44 229.24 162.87 C 225.57 163.75 225.02 165.55 226.40 161.06 C 239.50 162.24 251.31 158.64 264.17 158.12 Z" fill="#896a5e" />
<path d="M 221.11 159.32 C 221.71 159.50 222.30 159.68 222.90 159.88 C 222.16 165.03 223.27 170.02 222.87 175.17 C 219.31 171.90 221.53 163.85 221.11 159.32 Z" fill="#9d796b" />
<path d="M 92.35 159.63 C 98.13 160.65 94.08 171.54 97.79 175.08 L 98.26 175.83 L 97.93 177.92 C 95.62 175.17 96.03 177.12 94.07 178.84 C 93.61 172.01 95.09 166.12 92.35 159.63 Z" fill="#8c6940" />
<path d="M 143.84 160.91 C 142.32 168.07 144.78 174.67 140.22 180.14 C 139.73 186.83 140.02 192.35 135.73 197.97 C 134.94 198.02 134.15 198.07 133.37 198.12 C 133.11 192.67 132.03 188.53 127.98 184.68 C 128.03 182.77 128.10 180.87 128.24 178.96 C 131.09 176.30 131.59 172.47 132.88 168.88 L 133.87 169.01 C 135.07 175.82 132.54 176.41 129.00 181.08 C 131.47 185.83 134.20 189.09 134.40 194.99 C 139.92 186.80 138.75 172.76 141.20 163.14 C 141.45 161.39 142.49 161.52 143.84 160.91 Z" fill="#7c6740" />
<path d="M 320.00 168.96 L 320.00 170.93 C 307.96 171.09 297.95 176.18 287.23 169.41 C 283.78 168.35 286.60 168.00 287.93 166.55 C 298.49 165.39 309.69 166.40 320.00 168.96 Z" fill="#3b3a35" />
<path d="M 50.27 167.23 C 50.75 171.42 53.55 164.74 55.16 168.99 C 50.66 172.32 46.24 171.05 45.48 177.72 C 49.04 177.08 51.84 178.00 55.10 179.34 C 58.56 178.91 60.83 179.98 64.02 180.95 C 68.94 181.03 74.02 179.94 79.10 180.71 C 79.73 181.88 79.11 183.29 80.95 182.84 C 84.42 182.49 84.05 177.73 86.89 175.65 C 88.47 171.81 81.58 174.02 79.67 173.46 C 74.47 171.99 69.01 173.05 66.84 167.49 C 73.17 169.34 80.41 168.59 86.97 169.05 C 88.01 173.40 88.09 177.70 88.12 182.15 L 88.18 184.05 C 79.33 185.99 70.68 186.03 62.03 183.08 C 52.77 181.88 44.29 179.90 35.87 184.65 C 31.34 188.82 24.22 189.80 18.39 191.33 C 13.54 191.06 8.34 189.61 3.64 188.34 C 3.37 187.62 3.17 186.89 3.02 186.13 C 11.01 188.14 18.40 191.34 25.48 185.74 C 27.41 181.08 30.21 185.33 33.70 182.72 C 35.21 181.73 40.32 179.02 39.80 177.15 C 35.82 176.34 29.36 182.44 25.33 180.06 C 29.44 176.16 20.66 178.35 18.88 178.84 C 14.72 179.99 19.87 179.53 21.00 180.79 C 14.71 181.40 8.66 181.15 2.43 182.60 C 1.43 183.98 0.74 185.63 0.00 187.16 L 0.00 180.61 C 4.69 179.44 8.58 181.12 12.41 178.15 C 12.70 179.80 12.38 181.10 13.68 178.80 C 14.42 174.51 17.96 175.24 21.13 173.28 C 27.53 166.11 41.37 166.83 50.27 167.23 Z" fill="#4f4d49" />
<path d="M 281.91 170.03 C 283.17 173.68 278.24 177.16 274.60 176.42 C 275.76 182.28 272.25 179.27 268.95 178.67 C 260.16 180.65 254.29 173.94 245.21 173.67 C 244.63 171.05 246.32 172.37 248.01 172.10 C 253.69 172.87 259.59 172.21 265.23 171.35 C 270.80 170.43 276.23 169.60 281.91 170.03 Z" fill="#423f3b" />
<path d="M 89.14 171.15 C 92.39 169.80 90.53 177.18 90.81 178.87 L 89.71 180.25 C 89.27 177.25 88.98 174.18 89.14 171.15 Z" fill="#a46b4c" />
<path d="M 141.22 172.42 C 139.18 178.45 144.73 174.32 141.22 172.42 Z" fill="#583f28" />
<path d="M 182.27 171.89 C 186.37 173.72 190.01 172.83 194.22 172.21 C 193.77 174.90 201.69 174.94 200.75 171.97 C 203.29 178.08 213.07 172.09 217.99 174.25 C 216.17 175.51 214.24 176.54 212.12 177.19 C 208.55 178.62 205.63 175.32 202.06 177.23 C 203.45 178.46 205.06 178.73 205.77 180.59 C 204.40 181.18 203.01 181.71 201.63 182.27 L 200.15 181.80 L 198.75 180.98 C 201.17 179.60 202.47 180.59 200.32 177.75 C 198.07 173.46 195.43 176.59 192.10 177.43 C 193.58 178.81 195.37 179.84 197.10 180.88 C 191.33 180.54 186.29 178.22 180.32 179.06 C 180.51 179.70 180.71 180.34 180.92 180.98 C 177.96 181.92 176.02 182.31 173.11 180.88 C 164.04 176.21 154.75 174.69 144.64 175.48 C 143.10 176.07 144.76 173.10 145.76 173.60 C 157.95 171.71 169.99 172.01 182.27 171.89 Z" fill="#5f5248" />
<path d="M 320.00 173.73 L 320.00 200.53 C 316.20 199.33 312.22 199.90 308.37 198.78 C 306.68 198.16 304.53 201.24 304.28 198.36 C 302.37 198.12 299.10 200.35 299.37 197.21 C 295.78 199.84 291.56 197.36 287.29 198.98 C 289.79 196.29 288.95 196.42 286.04 195.11 C 280.72 198.80 272.95 198.42 267.33 195.68 C 264.61 193.68 266.70 193.42 268.11 191.55 C 273.45 191.57 280.04 193.66 285.04 191.41 C 279.19 190.37 273.44 189.58 267.79 187.63 C 275.24 185.91 283.03 187.85 290.35 187.30 C 294.57 185.46 299.55 185.60 303.48 183.48 C 308.26 179.92 313.84 181.42 318.36 177.81 C 318.64 175.82 317.39 174.38 320.00 173.73 Z" fill="#43413c" />
<path d="M 200.32 177.75 C 202.47 180.59 201.17 179.60 198.75 180.98 L 197.10 180.88 C 195.37 179.84 193.58 178.81 192.10 177.43 C 195.43 176.59 198.07 173.46 200.32 177.75 Z" fill="#3e3228" />
<path d="M 98.26 175.83 C 99.11 177.18 100.65 177.93 99.63 179.70 C 97.03 183.13 100.94 187.57 103.05 190.24 C 104.11 188.21 104.38 185.51 105.93 183.83 C 108.10 185.33 109.78 187.78 112.12 188.96 C 115.68 189.84 116.52 187.11 118.76 185.11 C 119.49 188.39 123.13 190.44 125.14 193.04 C 126.90 192.19 126.70 190.77 127.06 189.10 C 127.33 187.62 127.64 186.15 127.98 184.68 C 132.03 188.53 133.11 192.67 133.37 198.12 C 132.69 201.20 126.80 199.42 124.37 200.44 C 116.18 203.27 108.03 201.16 99.30 200.78 C 99.54 197.32 99.55 194.08 98.27 190.78 C 97.94 189.83 97.56 188.90 97.14 187.98 C 94.74 184.02 97.11 181.77 97.93 177.92 L 98.26 175.83 Z" fill="#44440e" />
<path d="M 39.80 177.15 C 40.32 179.02 35.21 181.73 33.70 182.72 C 30.21 185.33 27.41 181.08 25.48 185.74 C 18.40 191.34 11.01 188.14 3.02 186.13 C 3.17 186.89 3.37 187.62 3.64 188.34 C 8.34 189.61 13.54 191.06 18.39 191.33 C 24.22 189.80 31.34 188.82 35.87 184.65 C 44.29 179.90 52.77 181.88 62.03 183.08 C 70.68 186.03 79.33 185.99 88.18 184.05 L 88.34 184.86 C 87.91 187.65 88.65 190.13 86.02 191.93 C 82.49 192.66 78.95 192.80 75.36 192.89 C 65.20 190.32 53.83 191.82 43.35 191.34 C 38.83 190.57 39.75 195.55 36.67 191.41 C 31.67 193.60 30.24 194.86 24.57 192.97 C 25.47 197.87 21.77 193.72 18.92 197.42 C 15.58 197.35 13.85 197.85 16.67 200.99 C 11.02 199.88 5.44 200.01 0.00 197.80 L 0.00 187.16 C 0.74 185.63 1.43 183.98 2.43 182.60 C 8.66 181.15 14.71 181.40 21.00 180.79 C 19.87 179.53 14.72 179.99 18.88 178.84 C 20.66 178.35 29.44 176.16 25.33 180.06 C 29.36 182.44 35.82 176.34 39.80 177.15 Z" fill="#393934" />
<path d="M 128.24 178.96 C 127.13 178.90 126.03 178.81 124.93 178.75 C 125.60 175.95 127.76 176.28 128.24 178.96 Z" fill="#866730" />
<path d="M 128.24 178.96 C 128.10 180.87 128.03 182.77 127.98 184.68 C 127.64 186.15 127.33 187.62 127.06 189.10 C 124.15 191.62 121.14 185.43 120.84 183.14 C 122.34 181.79 123.68 180.33 124.93 178.75 C 126.03 178.81 127.13 178.90 128.24 178.96 Z" fill="#d4ae81" />
<path d="M 90.81 178.87 C 91.04 181.89 91.65 184.82 92.20 187.79 C 91.80 191.27 92.58 198.87 97.73 197.89 C 98.08 195.54 98.17 193.15 98.27 190.78 C 99.55 194.08 99.54 197.32 99.30 200.78 C 108.03 201.16 116.18 203.27 124.37 200.44 C 126.80 199.42 132.69 201.20 133.37 198.12 C 134.15 198.07 134.94 198.02 135.73 197.97 C 135.73 198.96 135.76 199.95 135.82 200.94 L 134.79 201.68 C 131.32 200.12 129.16 208.18 127.58 203.21 C 126.65 200.54 124.66 202.85 124.16 204.55 C 121.55 205.03 117.94 202.69 117.68 206.63 C 112.80 205.94 109.11 203.54 103.51 205.54 C 100.46 208.73 98.64 212.04 94.74 214.44 C 96.06 215.87 94.42 218.31 92.81 217.12 C 88.77 214.49 88.27 219.21 83.83 218.39 C 82.90 221.56 80.51 219.40 79.00 217.99 C 75.29 214.65 67.78 220.90 63.51 221.27 C 66.87 226.63 62.30 221.18 59.88 221.20 C 58.48 225.42 54.91 222.16 52.01 224.02 C 49.36 225.91 46.78 223.43 44.03 223.00 C 41.64 222.16 38.47 222.38 36.95 220.24 C 45.86 219.51 56.60 217.60 65.26 215.23 C 67.67 212.04 70.97 208.01 69.33 203.94 C 72.02 205.96 69.49 210.17 73.88 207.89 C 77.68 207.06 74.86 203.53 72.05 204.41 C 76.36 199.44 68.80 204.42 70.75 199.91 C 72.83 197.24 77.76 200.27 79.38 198.26 C 80.44 194.41 83.30 196.02 86.24 195.78 C 86.27 194.48 88.72 191.30 86.02 191.93 C 88.65 190.13 87.91 187.65 88.34 184.86 C 89.44 186.81 88.24 193.56 89.88 193.75 C 90.19 189.50 90.07 185.22 89.75 180.98 L 89.71 180.25 L 90.81 178.87 Z" fill="#504b42" />
<path d="M 180.32 179.06 C 186.29 178.22 191.33 180.54 197.10 180.88 L 198.75 180.98 L 200.15 181.80 C 193.57 182.63 187.42 181.36 180.92 180.98 C 180.71 180.34 180.51 179.70 180.32 179.06 Z" fill="#887062" />
<path d="M 89.75 180.98 C 90.07 185.22 90.19 189.50 89.88 193.75 C 88.24 193.56 89.44 186.81 88.34 184.86 L 88.18 184.05 L 88.12 182.15 C 88.67 181.76 89.21 181.37 89.75 180.98 Z" fill="#977e6c" />
<path d="M 120.84 183.14 C 121.14 185.43 124.15 191.62 127.06 189.10 C 126.70 190.77 126.90 192.19 125.14 193.04 C 123.13 190.44 119.49 188.39 118.76 185.11 C 119.43 184.43 120.12 183.77 120.84 183.14 Z" fill="#827437" />
<path d="M 227.96 188.89 C 226.78 191.15 218.42 190.73 217.85 186.54 C 219.22 186.65 220.58 186.85 221.97 186.87 C 225.37 186.68 228.05 182.80 227.96 188.89 Z" fill="#675957" />
<path d="M 267.79 187.63 C 273.44 189.58 279.19 190.37 285.04 191.41 C 280.04 193.66 273.45 191.57 268.11 191.55 C 266.55 191.32 264.97 191.15 263.39 191.06 C 257.51 188.29 251.33 186.54 244.93 185.50 C 254.05 182.80 259.31 188.06 267.79 187.63 Z" fill="#72655a" />
<path d="M 186.96 186.60 C 190.96 188.75 186.40 192.08 189.74 194.23 C 192.78 196.20 197.28 195.96 200.78 196.33 C 203.56 196.95 206.37 197.18 209.21 197.26 C 203.32 199.39 196.77 197.82 191.15 200.17 C 187.47 203.55 184.14 201.65 179.92 203.73 C 177.51 203.78 178.39 200.72 178.53 199.24 C 181.49 197.47 184.97 199.92 185.82 196.35 C 182.42 195.74 179.08 194.91 175.69 194.25 C 170.11 191.97 181.34 188.76 183.36 189.61 C 182.97 186.77 184.96 187.46 186.96 186.60 Z" fill="#5d5147" />
<path d="M 92.20 187.79 C 92.94 189.75 93.62 191.74 94.37 193.70 C 97.91 192.99 96.73 190.82 97.14 187.98 C 97.56 188.90 97.94 189.83 98.27 190.78 C 98.17 193.15 98.08 195.54 97.73 197.89 C 92.58 198.87 91.80 191.27 92.20 187.79 Z" fill="#97856e" />
<path d="M 105.21 188.12 C 109.38 187.77 108.57 188.14 109.37 191.82 C 111.12 197.71 110.92 197.19 105.20 198.94 C 104.85 195.36 104.80 191.69 105.21 188.12 Z" fill="#837447" />
<path d="M 238.49 191.37 C 241.38 192.67 244.96 193.05 246.97 195.77 C 244.57 197.38 232.78 194.27 232.80 191.15 C 230.17 184.68 236.27 190.34 238.49 191.37 Z" fill="#605245" />
<path d="M 217.81 194.02 C 216.00 194.09 215.06 193.83 214.52 191.96 C 217.50 188.07 216.31 192.31 217.81 194.02 Z" fill="#74747b" />
<path d="M 36.67 191.41 C 39.75 195.55 38.83 190.57 43.35 191.34 C 53.83 191.82 65.20 190.32 75.36 192.89 C 73.22 194.60 69.42 191.97 69.20 194.86 C 65.46 194.72 62.34 192.13 58.43 194.47 C 56.07 196.24 54.41 194.35 51.82 194.16 C 51.23 196.72 48.83 199.61 46.02 198.09 C 43.66 197.08 42.09 198.03 40.66 199.90 C 37.83 200.79 35.49 199.69 33.63 202.69 C 27.47 204.88 33.48 205.28 30.40 209.35 C 29.20 211.80 26.64 212.20 24.16 211.92 C 23.44 209.24 26.97 210.36 28.59 209.62 C 28.79 207.84 28.83 206.03 28.78 204.23 C 24.72 205.94 20.50 203.87 17.77 207.33 C 14.64 204.66 15.00 210.54 10.34 209.50 C 6.29 208.51 8.99 211.29 10.88 211.63 C 16.10 212.38 14.46 219.59 19.78 215.03 C 18.72 219.16 17.86 218.37 21.56 221.04 C 18.92 222.75 16.00 218.66 15.73 222.47 C 12.55 219.20 9.10 221.63 5.69 219.34 C 4.24 218.28 1.64 219.65 0.00 219.79 L 0.00 197.80 C 5.44 200.01 11.02 199.88 16.67 200.99 C 13.85 197.85 15.58 197.35 18.92 197.42 C 21.77 193.72 25.47 197.87 24.57 192.97 C 30.24 194.86 31.67 193.60 36.67 191.41 Z" fill="#4a4a47" />
<path d="M 230.72 197.05 C 228.31 197.08 227.40 197.16 225.64 198.90 C 220.37 197.56 214.64 196.59 209.21 197.26 C 206.37 197.18 203.56 196.95 200.78 196.33 C 202.08 195.93 203.37 195.52 204.68 195.15 C 209.55 196.77 214.93 195.53 220.03 196.50 C 219.66 195.67 219.26 194.86 218.83 194.06 C 221.51 193.80 225.84 194.64 228.10 193.29 C 228.73 188.02 233.73 194.23 230.72 197.05 Z" fill="#9e989f" />
<path d="M 263.39 191.06 C 264.97 191.15 266.55 191.32 268.11 191.55 C 266.70 193.42 264.61 193.68 267.33 195.68 C 272.95 198.42 280.72 198.80 286.04 195.11 C 288.95 196.42 289.79 196.29 287.29 198.98 C 291.56 197.36 295.78 199.84 299.37 197.21 C 299.10 200.35 302.37 198.12 304.28 198.36 C 304.53 201.24 306.68 198.16 308.37 198.78 C 312.22 199.90 316.20 199.33 320.00 200.53 L 320.00 203.50 C 317.41 203.92 315.77 202.40 313.40 201.73 C 307.92 201.77 300.52 203.86 295.73 200.77 C 289.89 202.46 284.37 200.92 277.99 200.90 C 275.47 201.19 272.84 199.17 271.87 202.42 C 273.66 202.61 275.15 201.39 275.84 203.59 C 278.60 203.98 280.75 201.89 281.80 205.57 C 280.10 204.96 273.20 207.95 278.13 208.37 C 266.07 211.05 253.29 210.97 241.10 213.29 C 242.33 214.50 243.68 215.56 244.93 216.75 C 242.09 216.71 240.59 215.79 239.07 218.80 C 241.04 220.06 243.21 221.05 245.27 222.14 C 242.73 223.11 241.34 221.70 239.00 221.02 C 236.55 221.82 234.56 223.12 231.86 223.07 C 230.17 219.73 234.15 220.86 236.14 220.28 C 233.58 216.19 230.75 220.93 228.13 216.86 C 224.34 212.63 220.83 213.10 215.88 214.61 C 216.69 213.22 217.97 209.50 220.02 210.05 C 227.51 211.04 234.47 212.45 242.04 211.15 C 248.85 210.37 255.29 208.17 262.00 208.47 C 261.33 201.73 259.44 209.21 256.17 205.98 C 258.22 204.62 262.59 197.82 257.07 199.09 C 250.58 201.93 242.43 199.58 235.27 200.11 C 232.04 199.84 228.60 200.30 225.64 198.90 C 227.40 197.16 228.31 197.08 230.72 197.05 C 236.50 200.15 241.53 198.21 247.62 198.40 C 250.59 198.66 251.78 195.76 254.42 197.78 C 253.41 193.85 261.84 193.36 263.39 191.06 Z" fill="#5e534b" />
<path d="M 86.02 191.93 C 88.72 191.30 86.27 194.48 86.24 195.78 C 83.30 196.02 80.44 194.41 79.38 198.26 C 77.76 200.27 72.83 197.24 70.75 199.91 C 57.93 198.57 46.12 203.12 33.63 202.69 C 35.49 199.69 37.83 200.79 40.66 199.90 C 42.09 198.03 43.66 197.08 46.02 198.09 C 48.83 199.61 51.23 196.72 51.82 194.16 C 54.41 194.35 56.07 196.24 58.43 194.47 C 62.34 192.13 65.46 194.72 69.20 194.86 C 69.42 191.97 73.22 194.60 75.36 192.89 C 78.95 192.80 82.49 192.66 86.02 191.93 Z" fill="#5c5a54" />
<path d="M 214.52 191.96 C 215.06 193.83 216.00 194.09 217.81 194.02 L 218.83 194.06 C 219.26 194.86 219.66 195.67 220.03 196.50 C 214.93 195.53 209.55 196.77 204.68 195.15 C 207.94 194.01 211.27 193.12 214.52 191.96 Z" fill="#d1cbd1" />
<path d="M 175.69 194.25 C 179.08 194.91 182.42 195.74 185.82 196.35 C 184.97 199.92 181.49 197.47 178.53 199.24 C 178.39 200.72 177.51 203.78 179.92 203.73 C 184.14 201.65 187.47 203.55 191.15 200.17 C 196.77 197.82 203.32 199.39 209.21 197.26 C 214.64 196.59 220.37 197.56 225.64 198.90 C 228.60 200.30 232.04 199.84 235.27 200.11 C 242.43 199.58 250.58 201.93 257.07 199.09 C 262.59 197.82 258.22 204.62 256.17 205.98 C 259.44 209.21 261.33 201.73 262.00 208.47 C 255.29 208.17 248.85 210.37 242.04 211.15 C 234.47 212.45 227.51 211.04 220.02 210.05 C 217.97 209.50 216.69 213.22 215.88 214.61 C 220.83 213.10 224.34 212.63 228.13 216.86 C 230.75 220.93 233.58 216.19 236.14 220.28 C 234.15 220.86 230.17 219.73 231.86 223.07 C 226.10 223.63 220.67 224.02 214.90 223.23 C 213.15 223.34 208.92 226.34 212.66 227.35 C 217.91 230.82 222.71 229.14 228.16 227.29 C 233.48 226.29 238.63 228.05 243.96 226.51 C 249.66 225.05 252.17 229.85 256.64 232.01 C 263.49 237.13 269.32 234.07 276.98 236.11 C 282.10 236.45 286.73 236.32 291.62 238.37 C 294.91 240.10 299.10 237.10 301.31 240.00 L 119.48 240.00 C 121.70 237.64 122.34 237.44 125.48 237.25 C 130.46 234.48 137.48 228.43 142.96 232.99 C 144.92 231.46 151.22 227.27 149.96 224.49 C 153.87 224.13 157.04 224.19 159.95 221.17 C 155.50 222.27 151.48 220.87 147.05 221.33 C 144.65 217.98 144.99 213.94 139.70 215.99 C 135.07 217.46 134.42 213.11 131.16 215.45 C 136.55 217.31 131.20 216.34 129.70 218.61 C 126.48 218.62 126.88 218.31 126.20 221.36 C 125.91 225.07 122.16 225.40 119.36 226.49 C 119.20 228.69 122.56 231.94 123.66 234.02 C 120.44 235.31 120.69 232.04 117.44 232.15 C 115.38 231.24 109.38 232.28 112.60 228.81 C 109.11 229.33 109.11 233.45 105.57 234.69 C 102.93 236.67 105.06 237.93 106.13 240.00 L 97.79 240.00 C 99.57 238.15 101.24 236.17 102.84 234.18 C 99.94 233.83 97.07 233.66 94.17 234.14 C 92.12 232.23 92.37 230.21 92.35 227.66 C 91.56 225.00 96.01 227.48 96.84 225.85 C 98.73 224.08 99.08 219.91 102.06 222.61 C 105.55 219.48 109.29 218.11 113.38 216.12 C 115.06 212.51 120.24 209.93 123.02 213.73 C 120.41 214.26 116.59 213.24 114.97 215.68 C 119.04 213.75 122.76 217.70 125.55 215.98 C 124.78 212.61 121.99 210.67 121.21 207.29 C 120.98 205.52 118.88 206.80 117.68 206.63 C 117.94 202.69 121.55 205.03 124.16 204.55 C 124.66 202.85 126.65 200.54 127.58 203.21 C 129.16 208.18 131.32 200.12 134.79 201.68 C 140.73 206.71 149.51 204.67 156.84 205.27 C 164.84 207.32 172.87 209.52 181.00 211.05 C 187.48 212.61 193.31 209.06 199.83 210.87 C 200.58 212.96 200.70 215.55 203.60 213.75 C 206.02 211.97 204.72 215.21 203.71 215.73 C 192.08 216.98 180.06 216.29 168.61 218.54 C 167.17 219.10 165.02 218.59 165.07 220.64 C 171.27 219.05 174.61 225.98 179.27 228.63 C 184.76 232.26 193.33 235.80 196.14 227.13 C 201.18 224.59 209.41 221.07 211.77 215.68 C 213.42 210.15 209.02 217.74 207.26 213.70 C 204.97 209.33 214.42 211.23 216.79 210.72 C 217.76 207.92 213.88 209.49 212.32 209.17 C 206.59 206.84 201.30 204.80 195.16 207.18 C 181.12 212.52 166.00 204.26 151.51 203.03 C 153.11 196.72 163.74 200.92 167.01 203.87 C 171.68 202.25 174.93 198.51 179.89 197.37 C 177.25 196.66 176.27 197.37 175.69 194.25 Z" fill="#453f37" />
<path d="M 70.75 199.91 C 68.80 204.42 76.36 199.44 72.05 204.41 C 74.86 203.53 77.68 207.06 73.88 207.89 C 69.49 210.17 72.02 205.96 69.33 203.94 C 70.97 208.01 67.67 212.04 65.26 215.23 C 56.60 217.60 45.86 219.51 36.95 220.24 C 38.47 222.38 41.64 222.16 44.03 223.00 C 46.78 223.43 49.36 225.91 52.01 224.02 C 54.91 222.16 58.48 225.42 59.88 221.20 C 62.30 221.18 66.87 226.63 63.51 221.27 C 67.78 220.90 75.29 214.65 79.00 217.99 C 75.48 219.16 71.64 224.65 68.25 221.69 C 65.60 226.07 65.97 224.03 70.02 225.73 C 67.60 226.17 64.49 225.62 62.36 226.91 C 65.53 230.92 62.93 233.59 67.71 236.12 C 66.93 237.53 58.39 238.01 56.10 235.92 C 52.73 235.47 58.26 228.01 57.41 232.38 C 55.81 236.83 63.53 227.68 59.19 228.30 C 55.54 231.71 49.16 224.35 46.93 230.31 C 48.63 230.45 50.29 230.59 51.92 231.17 C 51.10 233.51 48.45 231.61 47.62 233.66 C 45.11 237.26 54.49 235.39 51.01 240.00 L 30.15 240.00 C 26.54 235.00 19.19 231.51 22.62 225.65 C 26.10 220.29 31.83 223.42 34.84 220.99 C 33.52 218.72 24.51 220.32 21.56 221.04 C 17.86 218.37 18.72 219.16 19.78 215.03 C 14.46 219.59 16.10 212.38 10.88 211.63 C 8.99 211.29 6.29 208.51 10.34 209.50 C 15.00 210.54 14.64 204.66 17.77 207.33 C 20.50 203.87 24.72 205.94 28.78 204.23 C 28.83 206.03 28.79 207.84 28.59 209.62 C 26.97 210.36 23.44 209.24 24.16 211.92 C 26.64 212.20 29.20 211.80 30.40 209.35 C 33.48 205.28 27.47 204.88 33.63 202.69 C 46.12 203.12 57.93 198.57 70.75 199.91 Z" fill="#3e3e3b" />
<path d="M 277.99 200.90 C 284.37 200.92 289.89 202.46 295.73 200.77 C 300.52 203.86 307.92 201.77 313.40 201.73 C 315.77 202.40 317.41 203.92 320.00 203.50 L 320.00 214.89 C 317.29 214.11 314.45 214.01 311.77 213.16 C 311.66 212.29 311.56 211.42 311.37 210.56 C 306.51 210.45 302.59 201.13 297.50 205.52 C 295.42 207.34 291.59 205.43 290.48 208.03 C 286.28 207.83 282.29 207.36 278.13 208.37 C 273.20 207.95 280.10 204.96 281.80 205.57 C 280.75 201.89 278.60 203.98 275.84 203.59 C 275.15 201.39 273.66 202.61 271.87 202.42 C 272.84 199.17 275.47 201.19 277.99 200.90 Z" fill="#706157" />
<path d="M 135.82 200.94 C 141.19 201.41 146.32 201.37 151.51 203.03 C 166.00 204.26 181.12 212.52 195.16 207.18 C 201.30 204.80 206.59 206.84 212.32 209.17 C 209.18 210.81 206.72 207.77 204.58 210.62 C 203.48 212.11 201.76 209.73 199.83 210.87 C 193.31 209.06 187.48 212.61 181.00 211.05 C 172.87 209.52 164.84 207.32 156.84 205.27 C 149.51 204.67 140.73 206.71 134.79 201.68 L 135.82 200.94 Z" fill="#7d6456" />
<path d="M 311.37 210.56 C 311.56 211.42 311.66 212.29 311.77 213.16 C 304.60 211.65 297.61 209.71 290.48 208.03 C 291.59 205.43 295.42 207.34 297.50 205.52 C 302.59 201.13 306.51 210.45 311.37 210.56 Z" fill="#927364" />
<path d="M 103.51 205.54 C 109.11 203.54 112.80 205.94 117.68 206.63 C 118.88 206.80 120.98 205.52 121.21 207.29 C 121.99 210.67 124.78 212.61 125.55 215.98 C 122.76 217.70 119.04 213.75 114.97 215.68 C 116.59 213.24 120.41 214.26 123.02 213.73 C 120.24 209.93 115.06 212.51 113.38 216.12 C 109.29 218.11 105.55 219.48 102.06 222.61 C 99.08 219.91 98.73 224.08 96.84 225.85 C 96.01 227.48 91.56 225.00 92.35 227.66 C 92.37 230.21 92.12 232.23 94.17 234.14 C 97.07 233.66 99.94 233.83 102.84 234.18 C 101.24 236.17 99.57 238.15 97.79 240.00 L 51.01 240.00 C 54.49 235.39 45.11 237.26 47.62 233.66 C 48.45 231.61 51.10 233.51 51.92 231.17 C 50.29 230.59 48.63 230.45 46.93 230.31 C 49.16 224.35 55.54 231.71 59.19 228.30 C 63.53 227.68 55.81 236.83 57.41 232.38 C 58.26 228.01 52.73 235.47 56.10 235.92 C 58.39 238.01 66.93 237.53 67.71 236.12 C 62.93 233.59 65.53 230.92 62.36 226.91 C 64.49 225.62 67.60 226.17 70.02 225.73 C 65.97 224.03 65.60 226.07 68.25 221.69 C 71.64 224.65 75.48 219.16 79.00 217.99 C 80.51 219.40 82.90 221.56 83.83 218.39 C 88.27 219.21 88.77 214.49 92.81 217.12 C 94.42 218.31 96.06 215.87 94.74 214.44 C 98.64 212.04 100.46 208.73 103.51 205.54 Z" fill="#33322e" />
<path d="M 290.48 208.03 C 297.61 209.71 304.60 211.65 311.77 213.16 C 314.45 214.01 317.29 214.11 320.00 214.89 L 320.00 240.00 L 315.28 240.00 C 300.53 235.00 284.55 232.54 268.98 233.02 C 265.77 233.09 263.02 231.92 260.14 230.68 C 258.33 229.21 258.47 227.78 256.16 229.51 C 255.62 227.18 256.64 224.71 253.69 223.98 C 253.41 228.14 251.22 224.83 251.49 222.64 C 249.43 221.98 247.40 222.03 245.27 222.14 C 243.21 221.05 241.04 220.06 239.07 218.80 C 240.59 215.79 242.09 216.71 244.93 216.75 C 243.68 215.56 242.33 214.50 241.10 213.29 C 253.29 210.97 266.07 211.05 278.13 208.37 C 282.29 207.36 286.28 207.83 290.48 208.03 Z" fill="#393530" />
<path d="M 212.32 209.17 C 213.88 209.49 217.76 207.92 216.79 210.72 C 214.42 211.23 204.97 209.33 207.26 213.70 C 209.02 217.74 213.42 210.15 211.77 215.68 C 205.54 218.87 199.14 222.49 193.11 226.12 C 189.75 228.68 194.73 226.90 196.14 227.13 C 193.33 235.80 184.76 232.26 179.27 228.63 C 174.61 225.98 171.27 219.05 165.07 220.64 C 165.02 218.59 167.17 219.10 168.61 218.54 C 180.06 216.29 192.08 216.98 203.71 215.73 C 204.72 215.21 206.02 211.97 203.60 213.75 C 200.70 215.55 200.58 212.96 199.83 210.87 C 201.76 209.73 203.48 212.11 204.58 210.62 C 206.72 207.77 209.18 210.81 212.32 209.17 Z" fill="#645148" />
<path d="M 139.70 215.99 C 144.99 213.94 144.65 217.98 147.05 221.33 C 143.36 221.77 139.73 221.44 136.04 221.20 C 137.85 224.61 140.55 222.72 143.71 224.25 C 146.51 225.45 147.20 221.73 149.96 224.49 C 151.22 227.27 144.92 231.46 142.96 232.99 C 137.48 228.43 130.46 234.48 125.48 237.25 C 122.34 237.44 121.70 237.64 119.48 240.00 L 106.13 240.00 C 105.06 237.93 102.93 236.67 105.57 234.69 C 109.11 233.45 109.11 229.33 112.60 228.81 C 109.38 232.28 115.38 231.24 117.44 232.15 C 120.69 232.04 120.44 235.31 123.66 234.02 C 122.56 231.94 119.20 228.69 119.36 226.49 C 122.16 225.40 125.91 225.07 126.20 221.36 C 126.88 218.31 126.48 218.62 129.70 218.61 C 131.20 216.34 136.55 217.31 131.16 215.45 C 134.42 213.11 135.07 217.46 139.70 215.99 Z" fill="#504b44" />
<path d="M 211.77 215.68 C 209.41 221.07 201.18 224.59 196.14 227.13 C 194.73 226.90 189.75 228.68 193.11 226.12 C 199.14 222.49 205.54 218.87 211.77 215.68 Z" fill="#906f63" />
<path d="M 5.69 219.34 C 9.10 221.63 12.55 219.20 15.73 222.47 C 16.00 218.66 18.92 222.75 21.56 221.04 C 24.51 220.32 33.52 218.72 34.84 220.99 C 31.83 223.42 26.10 220.29 22.62 225.65 C 23.38 221.20 19.91 224.65 17.43 224.57 C 19.50 230.26 11.82 227.33 9.37 225.75 C 6.62 223.56 9.52 228.01 9.62 229.05 C 5.35 228.94 1.99 224.79 0.00 230.30 L 0.00 219.79 C 1.64 219.65 4.24 218.28 5.69 219.34 Z" fill="#675d53" />
<path d="M 136.04 221.20 C 139.73 221.44 143.36 221.77 147.05 221.33 C 151.48 220.87 155.50 222.27 159.95 221.17 C 157.04 224.19 153.87 224.13 149.96 224.49 C 147.20 221.73 146.51 225.45 143.71 224.25 C 140.55 222.72 137.85 224.61 136.04 221.20 Z" fill="#7a665b" />
<path d="M 239.00 221.02 C 241.34 221.70 242.73 223.11 245.27 222.14 C 247.40 222.03 249.43 221.98 251.49 222.64 C 251.22 224.83 253.41 228.14 253.69 223.98 C 256.64 224.71 255.62 227.18 256.16 229.51 C 258.47 227.78 258.33 229.21 260.14 230.68 C 258.97 231.10 257.80 231.54 256.64 232.01 C 252.17 229.85 249.66 225.05 243.96 226.51 C 238.63 228.05 233.48 226.29 228.16 227.29 C 222.71 229.14 217.91 230.82 212.66 227.35 C 208.92 226.34 213.15 223.34 214.90 223.23 C 220.67 224.02 226.10 223.63 231.86 223.07 C 234.56 223.12 236.55 221.82 239.00 221.02 Z" fill="#715c50" />
<path d="M 22.62 225.65 C 19.19 231.51 26.54 235.00 30.15 240.00 L 7.37 240.00 C 6.44 238.57 5.37 237.25 4.28 235.95 C 6.15 236.17 8.02 236.53 9.91 236.69 C 10.80 232.77 2.04 232.75 0.00 234.84 L 0.00 230.30 C 1.99 224.79 5.35 228.94 9.62 229.05 C 9.52 228.01 6.62 223.56 9.37 225.75 C 11.82 227.33 19.50 230.26 17.43 224.57 C 19.91 224.65 23.38 221.20 22.62 225.65 Z" fill="#5f4b3e" />
<path d="M 260.14 230.68 C 263.02 231.92 265.77 233.09 268.98 233.02 C 284.55 232.54 300.53 235.00 315.28 240.00 L 301.31 240.00 C 299.10 237.10 294.91 240.10 291.62 238.37 C 286.73 236.32 282.10 236.45 276.98 236.11 C 269.32 234.07 263.49 237.13 256.64 232.01 C 257.80 231.54 258.97 231.10 260.14 230.68 Z" fill="#947364" />
<path d="M 9.91 236.69 C 8.02 236.53 6.15 236.17 4.28 235.95 C 5.37 237.25 6.44 238.57 7.37 240.00 L 0.00 240.00 L 0.00 234.84 C 2.04 232.75 10.80 232.77 9.91 236.69 Z" fill="#85624e" />
</svg>