<?xml version="1.0" encoding="utf-8"?>
<svg version="1.1" viewBox="0 0 320 240" width="320.0pt" height="240.0pt" xmlns="http://www.w3.org/2000/svg">
  <path d="M 0.00 0.00 L 320.00 0.00 L 320.00 240.00 L 0.00 240.00 L 0.00 0.00 Z" style="fill: rgb(255, 255, 255);"/>
  <path d="M 211.97 34.39 C 220.21 34.37 228.42 34.00 236.66 34.24 C 236.79 41.50 237.56 48.72 237.60 55.98 C 237.65 64.98 237.50 74.00 237.77 83.00 C 238.72 99.33 239.76 115.64 240.25 132.00 C 240.42 139.49 240.07 146.90 240.77 154.38 C 241.92 165.49 240.78 176.40 241.83 187.54 C 242.50 194.04 242.54 200.51 242.43 207.05 C 242.31 209.02 242.35 211.55 241.27 213.27 C 240.16 214.32 237.93 214.07 236.48 214.24 C 223.02 213.82 209.48 214.71 196.00 214.97 C 161.65 216.07 127.29 217.04 92.96 218.57 C 86.82 218.83 80.74 218.67 74.62 219.14 C 70.57 219.43 66.28 220.05 62.25 219.54 C 60.66 219.41 60.06 217.90 59.78 216.54 C 59.12 212.45 59.49 208.14 59.46 204.00 C 59.50 186.00 59.49 168.00 59.50 150.00 C 59.53 143.63 58.39 137.38 58.45 131.01 C 58.47 125.10 58.63 119.23 57.95 113.35 C 56.87 103.99 58.16 94.69 56.96 85.34 C 55.90 76.62 57.05 67.94 56.03 59.21 C 55.27 52.09 55.25 44.94 55.63 37.79 C 61.07 37.13 66.48 36.43 71.98 36.47 C 82.32 36.50 92.66 36.46 103.00 36.51 C 109.37 36.56 115.62 35.39 121.99 35.45 C 144.33 35.50 166.67 35.46 189.00 35.33 C 196.67 35.30 204.29 34.38 211.97 34.39 Z" fill="#eee16d"/>
  <path d="M 142.75 43.25 C 146.15 43.57 149.17 47.06 147.55 50.45 C 145.87 54.30 140.78 55.43 138.19 58.23 C 135.80 61.31 136.36 64.47 136.58 68.08 C 135.69 67.95 134.79 67.81 133.90 67.67 C 134.10 64.00 134.99 60.72 136.37 57.34 C 135.41 56.19 134.45 55.04 133.50 53.89 C 134.05 53.41 134.60 52.93 135.16 52.46 C 135.41 53.43 135.67 54.40 135.92 55.37 C 136.87 54.34 137.78 53.28 138.72 52.24 C 139.36 53.12 140.00 54.00 140.64 54.88 C 142.64 53.20 146.35 51.21 145.91 48.18 C 145.47 45.33 142.47 44.88 140.07 45.04 C 136.45 45.33 131.74 46.54 129.38 49.50 C 128.44 51.93 128.52 54.81 128.20 57.38 C 127.78 54.26 126.50 50.59 129.02 48.01 C 132.40 44.49 137.94 42.72 142.75 43.25 Z" fill="#95861f"/>
  <path d="M 161.90 47.94 C 163.86 47.80 164.30 48.67 165.20 50.19 C 165.12 52.08 163.68 53.95 162.83 55.61 C 162.94 53.58 163.30 51.74 162.79 49.76 C 158.95 49.65 154.45 50.89 151.66 53.63 C 150.56 57.60 150.86 62.08 150.70 66.17 C 149.86 64.45 149.04 62.72 148.24 60.98 C 144.06 62.84 144.43 66.36 143.14 70.16 C 143.28 67.80 143.48 65.44 143.69 63.08 C 142.75 62.46 141.80 61.85 140.85 61.24 C 143.38 59.99 145.68 58.70 147.43 56.42 C 150.93 51.92 156.04 48.19 161.90 47.94 Z" fill="#95861f"/>
  <path d="M 115.43 51.02 C 112.83 52.15 110.13 52.94 107.39 53.61 C 106.35 56.37 105.36 59.14 104.39 61.91 C 106.69 61.64 108.99 61.37 111.30 61.14 C 109.21 62.45 107.08 63.67 104.97 64.94 C 107.22 64.47 109.46 63.95 111.71 63.50 C 110.47 64.67 109.17 65.99 107.68 66.82 C 105.78 67.59 102.68 66.18 102.81 63.91 C 102.91 60.73 104.38 57.47 105.49 54.51 C 104.28 54.13 103.07 53.74 101.87 53.34 C 106.55 51.07 110.22 50.48 115.43 51.02 Z" fill="#95861f"/>
  <path d="M 169.38 52.30 C 173.53 52.21 177.67 52.13 181.82 51.97 C 182.33 52.79 182.85 53.61 183.37 54.42 C 179.91 53.54 177.07 53.28 173.56 54.13 C 176.77 58.88 182.60 58.72 185.42 63.92 C 181.93 65.41 179.28 66.72 175.62 64.80 C 178.16 64.22 180.70 63.82 183.25 63.33 C 178.16 59.95 173.07 57.41 169.38 52.30 Z" fill="#95861f"/>
  <path d="M 96.13 52.68 C 96.88 54.27 97.86 55.63 97.36 57.48 C 96.31 61.44 94.61 65.84 91.68 68.79 C 88.72 69.19 84.80 68.94 81.96 67.97 C 79.26 64.00 78.39 58.51 78.36 53.79 C 80.06 57.53 80.27 61.56 81.51 65.41 C 81.96 67.02 83.44 67.36 84.71 68.25 C 84.48 64.36 83.89 60.53 83.94 56.63 C 85.38 59.26 86.25 62.07 87.31 64.86 C 87.81 66.51 89.45 66.99 90.79 67.90 C 94.05 62.76 95.43 58.70 96.13 52.68 Z" fill="#95861f"/>
  <path d="M 159.10 55.01 C 162.24 58.71 164.95 62.57 166.23 67.33 C 163.72 64.65 161.64 61.73 159.33 58.87 C 158.49 61.91 157.66 64.94 156.59 67.91 C 155.62 63.24 157.13 59.17 159.10 55.01 Z" fill="#95861f"/>
  <path d="M 148.17 57.24 C 149.91 57.42 149.62 59.66 148.06 59.89 C 146.30 59.70 146.60 57.50 148.17 57.24 Z" fill="#eee16d"/>
  <path d="M 168.78 56.62 C 169.38 60.13 169.51 63.41 169.22 66.95 C 167.08 63.39 167.54 60.39 168.78 56.62 Z" fill="#95861f"/>
  <path d="M 152.09 72.18 C 159.31 71.53 166.61 72.28 173.82 73.17 C 176.70 73.49 179.09 74.46 181.52 75.99 C 175.60 75.82 169.99 74.00 164.04 74.02 C 156.80 74.00 149.69 73.81 142.48 74.63 C 134.94 75.54 127.60 74.46 120.00 74.74 C 111.28 74.57 102.70 75.00 94.01 75.72 C 89.09 76.03 84.50 76.56 79.60 75.74 C 81.36 74.94 83.09 74.34 85.05 74.36 C 89.70 74.28 94.35 74.37 99.00 74.06 C 109.08 73.43 119.52 74.94 129.63 73.73 C 137.10 72.78 144.60 72.87 152.09 72.18 Z" fill="#95861f"/>
  <path d="M 162.79 91.69 C 165.52 96.72 166.47 100.73 164.67 106.32 C 164.24 104.60 163.82 102.89 163.44 101.16 C 162.09 101.29 160.75 101.41 159.40 101.53 C 158.69 103.70 157.98 105.87 157.17 108.01 C 156.93 101.66 157.33 95.81 162.79 91.69 Z" fill="#95861f"/>
  <path d="M 161.80 94.07 C 162.56 95.74 163.28 97.42 163.99 99.12 C 162.46 99.38 160.93 99.64 159.40 99.88 C 160.08 97.90 160.85 95.95 161.80 94.07 Z" fill="#eee16d"/>
  <path d="M 139.31 96.00 C 138.55 99.81 137.35 103.29 135.40 106.67 C 135.40 103.36 136.18 100.22 137.04 97.05 C 135.71 97.06 134.37 97.09 133.04 97.13 C 131.46 101.07 130.69 105.22 128.86 109.05 C 127.25 105.41 128.80 102.56 129.71 99.02 C 125.59 99.74 121.63 100.18 117.48 99.33 C 117.99 98.74 118.50 98.15 119.01 97.57 C 121.62 98.18 123.94 98.61 126.53 97.56 C 131.01 95.90 134.54 95.57 139.31 96.00 Z" fill="#95861f"/>
  <path d="M 144.09 96.19 C 146.79 96.01 151.55 95.08 153.63 97.05 C 153.21 100.15 151.88 103.02 150.49 105.78 C 150.36 102.74 150.97 99.87 151.77 96.96 C 150.21 97.01 148.65 97.06 147.10 97.11 C 146.26 100.38 145.63 103.63 145.19 106.98 L 143.97 106.89 C 144.37 103.27 144.33 99.81 144.09 96.19 Z" fill="#95861f"/>
  <path d="M 116.07 101.60 C 118.07 101.61 120.08 101.88 122.06 102.11 C 120.25 103.09 118.39 103.99 116.55 104.92 C 119.14 105.56 121.49 106.06 123.48 107.97 C 120.72 107.84 118.01 107.43 115.32 106.85 C 115.53 105.08 115.69 103.35 116.07 101.60 Z" fill="#95861f"/>
  <path d="M 185.19 112.92 C 182.42 117.39 178.87 121.12 176.79 126.04 C 181.00 127.13 185.13 126.73 189.41 126.63 C 185.67 128.69 181.37 128.90 177.29 127.80 C 175.55 126.74 175.84 125.11 176.34 123.42 C 178.04 118.98 181.25 115.50 185.19 112.92 Z" fill="#95861f"/>
  <path d="M 151.97 114.83 C 151.75 116.35 151.47 117.85 151.21 119.36 C 152.18 120.84 153.40 122.41 153.89 124.12 C 154.16 126.19 153.94 128.36 153.81 130.43 C 152.26 126.98 152.86 121.99 148.63 120.70 C 148.26 123.90 147.96 127.09 147.46 130.27 C 146.85 128.12 145.95 126.05 146.66 123.81 C 147.46 121.06 148.97 118.44 150.15 115.83 C 145.44 116.31 141.86 118.25 138.13 120.99 C 139.80 122.75 142.45 124.65 143.14 127.01 C 143.27 130.31 140.56 130.49 137.98 130.30 C 136.18 129.88 133.22 130.16 133.17 127.66 C 131.69 122.87 136.47 121.10 139.21 118.19 C 135.25 118.10 131.29 118.22 127.33 118.11 C 131.59 114.74 135.48 116.37 140.34 116.62 C 144.55 116.33 147.46 113.38 151.97 114.83 Z" fill="#95861f"/>
  <path d="M 125.41 115.91 C 122.78 117.03 119.66 117.66 117.33 119.33 C 114.93 121.74 113.57 125.36 112.41 128.50 C 111.94 130.31 110.81 132.45 112.18 134.13 C 116.19 132.36 118.71 128.57 122.71 126.62 C 125.97 124.96 127.38 122.15 129.57 119.40 C 131.72 122.66 131.29 125.94 131.18 129.64 C 130.04 128.65 128.90 127.66 127.75 126.68 C 126.57 129.20 125.51 131.77 124.42 134.33 C 124.38 132.06 124.40 129.78 124.37 127.51 C 120.75 129.12 118.25 131.88 115.20 134.25 C 113.46 135.79 111.61 134.48 109.64 134.18 C 110.85 128.72 112.55 121.75 116.77 117.80 C 119.35 115.43 122.17 115.84 125.41 115.91 Z" fill="#95861f"/>
  <path d="M 175.28 117.55 C 172.51 118.97 169.56 119.82 166.66 120.92 C 164.91 121.42 164.37 124.05 163.56 125.49 C 165.07 125.36 166.58 125.22 168.09 125.09 C 166.65 126.39 165.22 127.70 163.81 129.03 C 166.09 128.23 168.34 127.35 170.63 126.55 C 168.86 128.45 166.93 130.09 164.85 131.62 C 163.99 130.29 162.27 128.67 162.35 126.99 C 162.47 124.36 163.53 121.70 164.27 119.20 C 167.94 118.67 171.60 118.00 175.28 117.55 Z" fill="#95861f"/>
  <path d="M 156.22 120.52 C 157.27 123.29 157.59 125.95 157.49 128.91 C 154.95 126.25 155.82 123.79 156.22 120.52 Z" fill="#95861f"/>
  <path d="M 128.18 123.35 C 130.44 122.87 129.82 126.04 127.99 125.94 C 126.61 125.53 127.15 123.83 128.18 123.35 Z" fill="#eee16d"/>
  <path d="M 134.82 122.66 C 136.24 123.07 137.73 123.42 139.08 124.03 C 140.50 125.01 141.43 126.78 142.43 128.15 C 139.77 128.70 137.41 129.18 134.85 127.90 C 134.69 126.14 134.78 124.42 134.82 122.66 Z" fill="#eee16d"/>
  <path d="M 148.41 140.77 C 145.89 145.09 142.36 147.90 141.73 153.19 C 143.04 152.53 144.35 151.86 145.65 151.17 C 145.23 150.08 144.81 148.98 144.39 147.89 C 148.96 147.48 151.41 146.57 155.20 143.95 C 155.50 144.60 155.80 145.24 156.10 145.89 C 158.63 146.29 160.92 146.92 163.29 147.92 C 159.73 152.57 156.91 154.25 151.16 155.47 C 150.44 153.15 149.80 150.81 149.15 148.47 C 147.20 150.66 145.29 153.35 142.82 154.96 C 140.83 155.43 139.63 154.01 140.13 152.08 C 141.21 147.45 143.33 142.14 148.41 140.77 Z" fill="#95861f"/>
  <path d="M 115.85 141.74 C 116.10 143.15 116.30 144.58 116.45 146.00 C 117.10 150.14 115.11 154.76 113.85 158.65 C 111.97 152.92 114.38 147.29 115.85 141.74 Z" fill="#95861f"/>
  <path d="M 125.04 141.76 C 124.56 147.08 124.42 153.84 121.21 158.31 C 121.47 153.58 122.54 148.87 123.33 144.19 C 123.59 142.80 123.71 142.43 125.04 141.76 Z" fill="#95861f"/>
  <path d="M 129.33 145.46 C 128.71 147.46 127.67 149.55 127.53 151.65 C 127.97 152.56 128.45 153.44 128.98 154.31 C 131.08 152.27 133.00 150.07 134.95 147.89 C 134.45 150.45 134.03 153.10 133.19 155.57 C 130.77 155.52 128.23 154.89 126.20 153.56 C 125.05 149.86 127.18 148.03 129.33 145.46 Z" fill="#95861f"/>
  <path d="M 161.36 148.40 C 158.10 151.45 155.53 153.04 150.93 153.19 C 151.49 151.74 152.01 150.18 152.83 148.85 C 155.63 147.41 158.43 147.46 161.36 148.40 Z" fill="#eee16d"/>
  <path d="M 118.23 164.85 C 115.38 171.64 109.22 175.09 107.73 182.70 C 112.52 181.42 116.36 179.21 121.48 180.44 C 116.78 182.17 111.88 183.42 106.93 184.15 C 107.25 181.25 107.39 178.54 108.96 175.97 C 111.41 171.81 114.49 167.93 118.23 164.85 Z" fill="#95861f"/>
  <path d="M 161.30 166.63 C 163.46 167.38 164.00 169.76 164.91 171.59 C 163.28 170.33 161.67 168.87 159.86 167.89 C 156.47 167.49 156.43 170.39 155.02 172.65 C 157.94 174.10 160.86 175.54 163.66 177.22 C 160.76 178.75 158.00 179.55 154.76 179.99 C 156.34 178.84 157.98 177.78 159.64 176.75 C 157.76 175.82 155.72 174.89 154.07 173.60 C 152.89 169.68 157.15 164.54 161.30 166.63 Z" fill="#95861f"/>
  <path d="M 151.16 167.26 C 152.83 166.99 153.49 169.12 151.84 169.70 C 150.19 169.95 149.50 167.84 151.16 167.26 Z" fill="#95861f"/>
  <path d="M 188.15 167.47 C 182.09 169.39 176.00 170.65 170.12 173.30 C 168.63 174.06 167.69 175.96 166.70 177.24 C 169.83 177.21 172.72 176.70 175.78 177.64 C 172.96 178.93 170.16 180.57 167.08 178.99 C 165.91 177.19 165.26 174.56 165.61 172.42 C 167.41 170.88 169.53 169.77 171.84 169.28 C 177.21 168.10 182.65 167.36 188.15 167.47 Z" fill="#95861f"/>
  <path d="M 131.93 170.10 C 133.00 172.87 134.84 176.19 132.95 179.02 C 131.20 181.32 127.31 183.80 124.37 182.78 C 121.44 181.21 122.29 177.87 123.23 175.34 C 124.39 171.86 128.90 171.23 131.93 170.10 Z" fill="#95861f"/>
  <path d="M 139.74 171.21 C 138.53 173.31 137.17 175.29 135.85 177.32 C 137.04 177.41 138.29 177.59 139.47 177.47 C 141.14 176.11 142.34 174.06 143.57 172.30 C 143.70 174.46 143.89 176.61 144.18 178.75 C 141.70 178.83 139.15 179.26 136.67 179.03 C 134.49 178.02 134.91 175.55 135.76 173.76 C 136.39 172.36 138.45 171.85 139.74 171.21 Z" fill="#95861f"/>
  <path d="M 131.97 171.99 C 132.54 174.09 133.30 175.86 132.05 177.92 C 130.11 181.04 126.98 181.77 123.53 181.30 C 123.87 179.52 123.93 177.38 124.82 175.77 C 125.88 174.41 128.14 174.06 129.69 173.39 C 130.46 172.94 131.21 172.45 131.97 171.99 Z" fill="#eee16d"/>
  <path d="M 149.31 172.79 C 149.40 175.58 149.34 178.35 149.32 181.14 C 148.46 180.64 147.61 180.14 146.75 179.64 C 147.44 177.29 148.24 174.99 149.31 172.79 Z" fill="#95861f"/>
  <path d="M 236.48 214.24 C 236.23 215.82 236.61 218.23 235.53 219.47 C 231.59 220.63 227.08 220.29 223.00 220.39 C 214.96 220.33 207.04 220.56 199.03 221.25 C 188.48 221.51 177.96 222.12 167.43 222.85 C 159.28 223.88 151.18 223.36 143.00 223.80 C 126.64 224.54 110.29 225.37 93.95 226.38 C 87.52 226.61 81.18 227.49 74.73 227.22 C 74.54 224.52 74.44 221.84 74.62 219.14 C 80.74 218.67 86.82 218.83 92.96 218.57 C 127.29 217.04 161.65 216.07 196.00 214.97 C 209.48 214.71 223.02 213.82 236.48 214.24 Z" fill="#a59581"/>
</svg>